<svg width="100" height="85" viewBox="0 0 100 85" fill="none" xmlns="http://www.w3.org/2000/svg">
<path d="M50.0514 63.8936C46.5553 63.8936 43.7125 66.7364 43.7125 70.2325C43.7125 73.7285 46.5553 76.5714 50.0514 76.5714C53.5474 76.5714 56.3903 73.7285 56.3903 70.2325C56.3903 66.7364 53.5474 63.8936 50.0514 63.8936ZM50.0514 73.4019C48.3035 73.4019 46.8819 71.9803 46.8819 70.2325C46.8819 68.4846 48.3035 67.063 50.0514 67.063C51.7992 67.063 53.2208 68.4846 53.2208 70.2325C53.2208 71.9803 51.7995 73.4019 50.0514 73.4019Z" fill="#FBBD30"/>
<path d="M96.9055 49.0402C95.4839 48.0544 93.6647 47.831 92.0419 48.4348L91.8597 48.503L74.7176 6.42525L31.4833 21.8668L22.5835 0.504883H5.67906C3.05796 0.504883 0.925049 2.6378 0.925049 5.25889C0.925049 7.87998 3.05796 10.0132 5.67906 10.0132H15.7263L38.1342 62.4168C36.6558 64.664 35.789 67.347 35.789 70.2328C35.789 78.0978 42.1881 84.4955 50.0514 84.4955C57.9146 84.4955 64.3137 78.0981 64.3137 70.2328C64.3137 70.0759 64.2948 69.9221 64.2901 69.7669L95.7009 58.3458C97.7801 57.5881 99.1777 55.5945 99.1777 53.3808C99.178 51.6485 98.3284 50.0274 96.9055 49.0402ZM54.1289 17.1442L59.0289 28.1692L54.0498 30.1611L49.0676 18.9523L54.1289 17.1442ZM46.0739 20.0206L52.3922 34.2373L63.2603 29.8903L57.1212 16.0763L72.9272 10.4314L88.8918 49.617L60.3018 60.3394C57.7061 57.65 54.0738 55.9704 50.0517 55.9704C48.624 55.9704 47.2484 56.1875 45.9471 56.579L32.7034 24.7952L46.0739 20.0206ZM5.67906 6.84378C4.80581 6.84378 4.0945 6.13383 4.0945 5.25889C4.0945 4.38395 4.80615 3.674 5.67906 3.674H20.4692L43.0339 57.8305C42.0927 58.3647 41.2242 59.0064 40.4318 59.7322L17.8183 6.84378H5.67906ZM50.0514 81.3257C43.9342 81.3257 38.9585 76.3482 38.9585 70.2325C38.9585 64.1167 43.9346 59.1392 50.0514 59.1392C56.1682 59.1392 61.1443 64.1167 61.1443 70.2325C61.1443 76.3482 56.1685 81.3257 50.0514 81.3257ZM94.6188 55.3663L63.8198 66.5657C63.479 65.2885 62.9672 64.0825 62.3062 62.9716L93.1545 51.403C93.8138 51.1542 94.5207 51.2431 95.1005 51.6441C95.6773 52.0451 96.0086 52.6789 96.0086 53.3808C96.0086 54.2665 95.4491 55.0637 94.6188 55.3663Z" fill="#FBBD30"/>
</svg>
