<svg width="78" height="78" viewBox="0 0 78 78" fill="none" xmlns="http://www.w3.org/2000/svg">
<path d="M73.0043 5.0478C67.0042 -0.953435 57.2756 -0.953435 51.2743 5.0478L34.9767 21.3455C33.4142 22.9079 32.2799 24.728 31.5312 26.6636C32.9155 26.611 34.2985 26.6751 35.6649 26.92C36.1943 25.8984 36.8352 24.9179 37.6927 24.0617L53.9904 7.76386C58.4829 3.2713 65.7941 3.2713 70.2881 7.76386C74.782 12.2578 74.782 19.5676 70.2881 24.0615L53.9904 40.3593C49.4978 44.8519 42.1866 44.8519 37.6927 40.3593C36.0495 38.7161 33.8449 38.0086 31.6927 38.1662C32.4425 39.9478 33.5257 41.6244 34.9765 43.0754C40.9766 49.0754 50.7052 49.0766 56.7064 43.0754L73.0043 26.7776C79.0041 20.7777 79.0041 11.0477 73.0043 5.0478Z" fill="#FBBD30"/>
<path d="M24.1123 37.6419C28.6049 33.1493 35.9161 33.1493 40.41 37.6419C42.0532 39.2851 44.2578 39.994 46.41 39.835C45.6615 38.0534 44.577 36.3768 43.1262 34.9258C37.1249 28.9258 27.3975 28.9258 21.3963 34.9258L5.0986 51.2235C-0.901438 57.2235 -0.901438 66.9522 5.0986 72.9534C11.0986 78.9534 20.8273 78.9534 26.8285 72.9534L43.1262 56.6557C44.6886 55.0933 45.823 53.2732 46.5716 51.3376C45.1873 51.3902 43.8044 51.3261 42.4379 51.0812C41.9086 52.1041 41.2677 53.0833 40.4101 53.9395L24.1123 70.2373C19.6198 74.7299 12.3086 74.7299 7.81465 70.2373C3.32074 65.7448 3.3221 58.4336 7.81465 53.9397L24.1123 37.6419Z" fill="#FBBD30"/>
</svg>
