<svg width="67" height="106" viewBox="0 0 67 106" fill="none" xmlns="http://www.w3.org/2000/svg">
<path d="M15.863 28.276C19.509 25.8452 23.6759 24.9773 27.6692 25.3244C25.7593 25.6717 23.6759 26.5396 21.0716 28.276C14.4739 32.7902 7.00832 40.9502 7.00832 54.6663V57.7915C7.00832 61.4375 7.52918 65.0835 8.5709 68.556L19.1617 103.28H13.9531L3.3623 68.7298C2.32057 65.2573 1.79971 61.6113 1.79971 57.9653V54.8401C1.79971 40.9502 9.26532 32.7902 15.863 28.276Z" fill="white"/>
<path d="M39.4752 105.015H12.7378L1.7997 69.2495C0.757983 65.6035 0.0635681 61.7839 0.0635681 57.9641V54.8389C0.0635681 40.0813 8.05003 31.5738 14.8212 27.0598C21.5924 22.372 30.4471 22.372 37.3918 27.0598C44.163 31.574 52.1495 40.0813 52.1495 54.8389V57.9641C52.1495 61.7837 51.6286 65.6035 50.4133 69.2495L39.4752 105.015ZM15.1683 101.543H36.8709L47.1146 68.208C48.1563 64.9093 48.6772 61.4368 48.6772 57.9643V54.8391C48.6772 41.6441 41.3851 34.0047 35.4821 30.0114C29.7526 26.1918 22.4606 26.1918 16.9047 30.0114C10.8279 33.831 3.53584 41.4703 3.53584 54.6654V57.7906C3.53584 61.263 4.0567 64.7353 5.09842 68.0342L15.1683 101.543Z" fill="#FBBD30"/>
<path d="M31.315 18.2059H20.8978C19.8561 18.2059 19.1617 17.5115 19.1617 16.4698V6.05254C19.1617 5.01082 19.8561 4.31641 20.8978 4.31641H31.315C32.3567 4.31641 33.0511 5.01082 33.0511 6.05254V16.4698C33.0513 17.5113 32.3567 18.2059 31.315 18.2059ZM22.6341 14.7334H29.5789V7.78868H22.6341V14.7334Z" fill="#FBBD30"/>
<path d="M31.315 12.9977H27.8426C26.8008 12.9977 26.1064 12.3032 26.1064 11.2615C26.1064 10.2198 26.8008 9.52539 27.8426 9.52539H31.315C32.3567 9.52539 33.0512 10.2198 33.0512 11.2615C33.0512 12.3032 32.3567 12.9977 31.315 12.9977Z" fill="#FBBD30"/>
<path d="M64.303 12.9977H62.5669C61.5252 12.9977 60.8308 12.3032 60.8308 11.2615C60.8308 10.2198 61.5252 9.52539 62.5669 9.52539H64.303C65.3448 9.52539 66.0392 10.2198 66.0392 11.2615C66.0392 12.3032 65.3448 12.9977 64.303 12.9977ZM57.3581 12.9977H55.622C54.5802 12.9977 53.8858 12.3032 53.8858 11.2615C53.8858 10.2198 54.5802 9.52539 55.622 9.52539H57.3581C58.3998 9.52539 59.0942 10.2198 59.0942 11.2615C59.0942 12.3032 58.3998 12.9977 57.3581 12.9977ZM50.4134 12.9977H48.6772C47.6355 12.9977 46.9411 12.3032 46.9411 11.2615C46.9411 10.2198 47.6355 9.52539 48.6772 9.52539H50.4134C51.4551 9.52539 52.1495 10.2198 52.1495 11.2615C52.1495 12.3032 51.4551 12.9977 50.4134 12.9977ZM43.4686 12.9977H41.7325C40.6907 12.9977 39.9963 12.3032 39.9963 11.2615C39.9963 10.2198 40.6907 9.52539 41.7325 9.52539H43.4686C44.5103 9.52539 45.2047 10.2198 45.2047 11.2615C45.2047 12.3032 44.5103 12.9977 43.4686 12.9977Z" fill="#FBBD30"/>
<path d="M41.7322 7.78865C40.8641 7.78865 40.1697 7.26779 39.9961 6.39962C39.8226 5.53145 40.3434 4.48973 41.3851 4.31618L43.1213 3.96887C43.9894 3.79531 45.0312 4.31618 45.2047 5.3579C45.3783 6.22607 44.8574 7.26779 43.8157 7.44134L42.0795 7.78865C41.906 7.78865 41.906 7.78865 41.7322 7.78865ZM48.5034 6.39962C47.6353 6.39962 46.9408 5.87876 46.7673 5.01059C46.5937 4.14242 47.1146 3.1007 48.1563 2.92714L49.8925 2.57984C50.7606 2.40628 51.8024 2.92714 51.9759 3.96887C52.1495 4.83704 51.6286 5.87876 50.5869 6.05231L48.8507 6.39962C48.6772 6.22607 48.6772 6.39962 48.5034 6.39962ZM55.2746 4.83704C54.4065 4.83704 53.712 4.31618 53.5385 3.44801C53.3649 2.57984 53.8858 1.53811 54.9275 1.36456L56.6637 1.01725C57.5318 0.843701 58.5735 1.36456 58.7471 2.40628C58.9207 3.27445 58.3998 4.31618 57.3581 4.48973L55.6219 4.83704C55.6219 4.83704 55.4484 4.83704 55.2746 4.83704Z" fill="#FBBD30"/>
<path d="M57.011 21.6787C56.8374 21.6787 56.8374 21.6787 56.6637 21.6787L54.9275 21.3314C54.0593 21.1579 53.3649 20.1162 53.5385 19.248C53.8858 18.2063 54.7538 17.6854 55.6219 17.859L57.3581 18.2063C58.2262 18.3798 58.9206 19.4215 58.7471 20.2897C58.5735 21.1579 57.7054 21.6787 57.011 21.6787ZM50.2398 20.1162C50.0662 20.1162 50.0662 20.1162 49.8925 20.1162L48.1563 19.7689C47.2881 19.5953 46.5937 18.5536 46.7673 17.6854C46.9408 16.6437 47.9826 16.1228 48.8507 16.2964L50.5869 16.6437C51.455 16.8172 52.1495 17.859 51.9759 18.7271C51.8023 19.5953 50.9342 20.1162 50.2398 20.1162ZM43.4686 18.5536C43.295 18.5536 43.295 18.5536 43.1213 18.5536L41.3851 18.2063C40.517 18.0327 39.8225 16.991 39.9961 16.1228C40.1696 15.2547 41.2114 14.5602 42.0795 14.7338L43.8157 15.0811C44.6838 15.2547 45.3783 16.2964 45.2047 17.1646C44.8574 18.0327 44.163 18.5536 43.4686 18.5536Z" fill="#FBBD30"/>
<path d="M36.5237 30.3602L33.9193 28.9712C29.058 26.3669 23.1548 26.3669 18.12 28.9712L15.6892 30.3602V18.0331C15.6892 16.297 17.0782 14.7344 18.9879 14.7344H33.3985C35.1346 14.7344 36.6972 16.1234 36.6972 18.0331V30.3602H36.5237ZM26.1064 23.589C28.5372 23.589 30.7942 23.9363 33.0512 24.8043V18.2068H19.1615V24.8045C21.4187 23.9363 23.6759 23.589 26.1064 23.589Z" fill="#FBBD30"/>
<path d="M38.26 105.016H13.9531C13.2586 105.016 12.564 104.495 12.2169 103.801L1.7997 69.2501C0.931535 66.2985 0.410674 63.1734 0.237122 60.0482C0.237122 59.5273 0.410674 59.18 0.757982 58.6592C4.23046 55.0131 8.91821 52.9297 13.9531 52.9297C18.8144 52.9297 23.5021 54.8396 27.1481 58.3118C27.3217 58.3118 27.3217 58.4854 27.4954 58.6592C30.4471 61.7843 34.4402 63.3469 38.4335 63.3469C42.4269 63.3469 46.2464 61.7843 49.1981 58.8327C49.7189 58.3119 50.4133 58.1383 51.1079 58.4854C51.8024 58.8327 52.1497 59.5271 52.1497 60.2215C51.9761 63.3467 51.4553 66.2983 50.5871 69.2497L39.9963 103.974C39.6488 104.495 38.9544 105.016 38.26 105.016ZM15.1683 101.544H36.8709L47.1146 68.2084C47.4619 66.8194 47.809 65.6041 48.1563 64.2151C45.2047 65.9512 41.906 66.9929 38.4335 66.9929C33.5722 66.9929 28.8845 65.083 25.2385 61.6108C25.0649 61.6108 25.0649 61.4372 24.8911 61.2635C21.9395 58.1383 17.9464 56.5757 13.9531 56.5757C10.1335 56.5757 6.48745 57.9647 3.70939 60.5691C3.88295 63.1734 4.40381 65.7777 5.09842 68.2084L15.1683 101.544Z" fill="#FBBD30"/>
</svg>
