<svg width="80" height="58" viewBox="0 0 80 58" fill="none" xmlns="http://www.w3.org/2000/svg">
<path d="M78.0805 20.9073H67.4057V12.9954C67.4057 11.9552 66.5624 11.1116 65.5219 11.1116H39.9909L35.4762 1.50432C35.1657 0.843791 34.5014 0.421875 33.7712 0.421875H2.02066C0.980434 0.421875 0.136871 1.26544 0.136871 2.30566V55.6946C0.136871 56.7223 0.974555 57.5786 2.02173 57.5786C2.0228 57.5786 2.02386 57.5784 2.02493 57.5784H65.5219C66.303 57.5784 67.003 57.0961 67.282 56.3663L79.8406 23.4629C80.3108 22.2308 79.3989 20.9073 78.0805 20.9073ZM3.90445 4.18972H32.5751L37.0898 13.797C37.4003 14.4576 38.0646 14.8795 38.7949 14.8795H63.6381V20.9076H14.5792C13.7982 20.9076 13.0979 21.3899 12.8192 22.1196L3.90445 45.4764V4.18972ZM64.2246 53.8108H4.75602L15.8765 24.6749C18.5908 24.6749 72.6317 24.6749 75.3451 24.6749L64.2246 53.8108Z" fill="#FBBD30"/>
</svg>
