<svg width="45" height="31" viewBox="0 0 45 31" fill="none" xmlns="http://www.w3.org/2000/svg">
<path d="M7.76 17.5767C11.44 17.5767 13.7 15.9767 13.7 12.8967C13.7 9.79666 11.44 8.19666 7.76 8.19666H2V18.7167H0V20.1167H2V22.1967H4.6V20.1167H9V18.7167H4.6V17.5767H7.76ZM11.08 12.9167C11.08 14.5367 9.88 15.4767 7.74 15.4767H4.6V10.3967H7.74C9.88 10.3967 11.08 11.2767 11.08 12.9167Z" fill="#FFE9B7"/>
<path d="M22.9944 17.5767C26.6744 17.5767 28.9344 15.9767 28.9344 12.8967C28.9344 9.79666 26.6744 8.19666 22.9944 8.19666H17.2344V18.7167H15.2344V20.1167H17.2344V22.1967H19.8344V20.1167H24.2344V18.7167H19.8344V17.5767H22.9944ZM26.3144 12.9167C26.3144 14.5367 25.1144 15.4767 22.9744 15.4767H19.8344V10.3967H22.9744C25.1144 10.3967 26.3144 11.2767 26.3144 12.9167Z" fill="#FFE9B7"/>
<path d="M38.4825 17.5767C42.1625 17.5767 44.4225 15.9767 44.4225 12.8967C44.4225 9.79666 42.1625 8.19666 38.4825 8.19666H32.7225V18.7167H30.7225V20.1167H32.7225V22.1967H35.3225V20.1167H39.7225V18.7167H35.3225V17.5767H38.4825ZM41.8025 12.9167C41.8025 14.5367 40.6025 15.4767 38.4625 15.4767H35.3225V10.3967H38.4625C40.6025 10.3967 41.8025 11.2767 41.8025 12.9167Z" fill="#FFE9B7"/>
</svg>
