<svg width="22" height="28" viewBox="0 0 22 28" fill="none" xmlns="http://www.w3.org/2000/svg">
<path d="M8.36844 13.5388C10.1133 13.5388 11.7867 14.2319 13.0205 15.4657C14.2542 16.6995 14.9474 18.3729 14.9474 20.1177V26.6967H1.78949V20.1177C1.78949 18.3729 2.48263 16.6995 3.71642 15.4657C4.95021 14.2319 6.62359 13.5388 8.36844 13.5388V13.5388Z" stroke="#FFE9B7" stroke-width="2.3" stroke-linecap="round" stroke-linejoin="round"/>
<path d="M12.3158 14.8546V12.223C12.3158 11.525 12.0386 10.8557 11.545 10.3622C11.0515 9.86866 10.3822 9.5914 9.68424 9.5914H7.05266C6.35472 9.5914 5.68537 9.86866 5.19185 10.3622C4.69834 10.8557 4.42108 11.525 4.42108 12.223V14.8546" stroke="#FFE9B7" stroke-width="2.3" stroke-linecap="round" stroke-linejoin="round"/>
<path d="M8.36844 1.69666V9.59139" stroke="#FFE9B7" stroke-width="2.3" stroke-linecap="round" stroke-linejoin="round"/>
<path d="M8.36844 4.32822H12.3158" stroke="#FFE9B7" stroke-width="2.3" stroke-linecap="round" stroke-linejoin="round"/>
<path d="M17.579 1.69666H14.9474C13.494 1.69666 12.3158 2.87485 12.3158 4.32823C12.3158 5.78161 13.494 6.95981 14.9474 6.95981H17.579C19.0323 6.95981 20.2105 5.78161 20.2105 4.32823C20.2105 2.87485 19.0323 1.69666 17.579 1.69666Z" stroke="#FFE9B7" stroke-width="2.3" stroke-linecap="round" stroke-linejoin="round"/>
</svg>
