<svg width="30" height="31" viewBox="0 0 30 31" fill="none" xmlns="http://www.w3.org/2000/svg">
<path d="M26.7542 10.4458H21.2606V7.53894C21.2606 5.44086 19.5536 3.73389 17.4555 3.73389H3.80505C1.70697 3.73389 0 5.44086 0 7.53894V21.95C0 22.5117 0.455354 22.967 1.01697 22.967H1.75152C1.82697 24.9073 3.42828 26.4628 5.38667 26.4628C7.34505 26.4628 8.94636 24.9073 9.02182 22.967H20.9782C21.0536 24.9073 22.6549 26.4628 24.6133 26.4628C26.5717 26.4628 28.173 24.9073 28.2485 22.967H28.983C29.5446 22.967 30 22.5117 30 21.95V13.6915C30 11.9018 28.5439 10.4458 26.7542 10.4458ZM26.7542 12.4796C27.4225 12.4796 27.9662 13.0233 27.9662 13.6915V15.6894H21.2606V12.4797H26.7542V12.4796ZM27.721 20.9331C27.0814 19.8858 25.9277 19.1852 24.6133 19.1852C23.299 19.1852 22.1453 19.8858 21.5057 20.9331H21.2606V17.7234H27.9662V20.9331H27.721ZM2.03394 7.53894C2.03394 6.56227 2.82838 5.76783 3.80505 5.76783H17.4556C18.4322 5.76783 19.2268 6.56227 19.2268 7.53894V20.9331H8.49434C7.85475 19.8858 6.70101 19.1852 5.38667 19.1852C4.07232 19.1852 2.91859 19.8858 2.27899 20.9331H2.03394V7.53894ZM5.38667 24.4288C4.50172 24.4288 3.78182 23.7089 3.78182 22.824C3.78182 21.939 4.50172 21.2191 5.38667 21.2191C6.27162 21.2191 6.99152 21.939 6.99152 22.824C6.99152 23.7089 6.27162 24.4288 5.38667 24.4288ZM24.6133 24.4288C23.7284 24.4288 23.0085 23.7089 23.0085 22.824C23.0085 21.939 23.7284 21.2191 24.6133 21.2191C25.4983 21.2191 26.2182 21.939 26.2182 22.824C26.2182 23.7089 25.4983 24.4288 24.6133 24.4288Z" fill="#FFE9B7"/>
</svg>
