<svg width="66" height="99" viewBox="0 0 66 99" fill="none" xmlns="http://www.w3.org/2000/svg">
<path d="M57.209 27.2922H45.6622V22.0436H46.187C47.0567 22.0436 47.7615 21.3387 47.7615 20.4691C47.7615 19.5996 47.0567 18.8946 46.187 18.8946H43.5627V1.57452C43.5627 0.704968 42.8579 0 41.9882 0H23.0934C22.2236 0 21.5189 0.704968 21.5189 1.57452V18.8944H18.8946C18.0249 18.8944 17.3201 19.5994 17.3201 20.4689C17.3201 21.3385 18.0249 22.0435 18.8946 22.0435H19.4194V27.292H7.87278C3.53158 27.292 0 30.8236 0 35.1648V90.7992C0 95.1408 3.53158 98.6724 7.87278 98.6724H57.209C61.5502 98.6724 65.0818 95.1408 65.0818 90.7996V35.165C65.0818 30.8239 61.55 27.2922 57.209 27.2922ZM24.6681 3.14904H40.4137V18.8944H24.6681V3.14904ZM61.9327 90.7996C61.9327 93.4044 59.8136 95.5234 57.209 95.5234H7.87278C5.26818 95.5234 3.14904 93.4044 3.14904 90.7996V35.165C3.14904 32.5602 5.26818 30.4412 7.87278 30.4412H20.9941C21.8638 30.4412 22.5686 29.7362 22.5686 28.8667V22.0436H42.5131V28.8667C42.5131 29.7362 43.2179 30.4412 44.0877 30.4412H57.209C59.8136 30.4412 61.9327 32.5602 61.9327 35.165V90.7996Z" fill="#FBBD30"/>
</svg>
