<svg width="86" height="82" viewBox="0 0 86 82" fill="none" xmlns="http://www.w3.org/2000/svg">
<path d="M83.953 13.9921L43.0969 0.373412C42.7474 0.25704 42.3696 0.25704 42.0201 0.373412L1.16391 13.9921C1.1396 14.0002 1.11789 14.0126 1.09409 14.0217C1.05773 14.0358 1.02251 14.0507 0.987271 14.067C0.92658 14.0955 0.867607 14.1276 0.810654 14.1629C0.78208 14.1807 0.75288 14.197 0.725349 14.2163C0.653557 14.2668 0.585784 14.3227 0.522635 14.3836C0.514009 14.3919 0.504037 14.3987 0.495619 14.4072C0.425784 14.4781 0.36233 14.5549 0.305995 14.6369C0.288644 14.6619 0.274617 14.6888 0.258619 14.7147C0.221549 14.7739 0.188167 14.8354 0.158662 14.8988C0.143286 14.9321 0.129675 14.9659 0.116478 15.0003C0.0920278 15.0648 0.0715616 15.1308 0.0551942 15.1978C0.0469846 15.2306 0.0376345 15.2626 0.0313997 15.2962C0.0113728 15.3987 0.000861499 15.5028 0 15.6072V49.654C0 50.1054 0.179353 50.5384 0.498604 50.8577C0.817854 51.1769 1.25085 51.3563 1.70234 51.3563C2.15383 51.3563 2.58682 51.1769 2.90607 50.8577C3.22532 50.5384 3.40468 50.1054 3.40468 49.654V17.9692L22.0773 24.1934C19.7746 27.2852 18.2022 30.8585 17.4779 34.645C16.7537 38.4314 16.8964 42.3328 17.8955 46.0562C18.8946 49.7796 20.724 53.2283 23.2465 56.1436C25.769 59.0589 28.919 61.365 32.4602 62.8889C23.1067 65.3772 15.0097 71.2487 9.73797 79.3659C9.61549 79.5532 9.53113 79.7627 9.48971 79.9826C9.44829 80.2025 9.45063 80.4284 9.49659 80.6474C9.54256 80.8664 9.63124 81.0742 9.75758 81.2588C9.88391 81.4435 10.0454 81.6015 10.2328 81.7237C10.4203 81.8459 10.63 81.9299 10.8499 81.971C11.0699 82.0121 11.2958 82.0095 11.5147 81.9632C11.7336 81.9169 11.9412 81.8279 12.1257 81.7013C12.3102 81.5747 12.4679 81.413 12.5899 81.2254C15.8377 76.2362 20.2797 72.1368 25.513 69.299C30.7463 66.4613 36.6052 64.975 42.5584 64.975C48.5115 64.975 54.3705 66.4613 59.6038 69.299C64.8371 72.1368 69.2791 76.2362 72.5269 81.2254C72.6488 81.413 72.8065 81.5747 72.991 81.7013C73.1755 81.8279 73.3832 81.9169 73.6021 81.9632C73.821 82.0095 74.0469 82.0121 74.2668 81.971C74.4868 81.9299 74.6965 81.8459 74.8839 81.7237C75.0714 81.6015 75.2329 81.4435 75.3592 81.2588C75.4855 81.0742 75.5742 80.8664 75.6202 80.6474C75.6661 80.4284 75.6685 80.2025 75.6271 79.9826C75.5856 79.7627 75.5013 79.5532 75.3788 79.3659C70.1071 71.2488 62.0102 65.3773 52.6567 62.8889C56.1979 61.365 59.3479 59.0589 61.8704 56.1436C64.3929 53.2283 66.2224 49.7796 67.2214 46.0562C68.2205 42.3328 68.3633 38.4314 67.639 34.645C66.9148 30.8585 65.3423 27.2852 63.0396 24.1934L83.953 17.2222C84.292 17.1092 84.5867 16.8924 84.7956 16.6026C85.0045 16.3127 85.1169 15.9645 85.1169 15.6072C85.1169 15.2499 85.0045 14.9017 84.7956 14.6118C84.5867 14.3219 84.292 14.1052 83.953 13.9921H83.953ZM64.6889 39.4399C64.689 42.991 63.8346 46.49 62.1977 49.6414C60.5609 52.7928 58.1897 55.504 55.2845 57.546C52.3793 59.5881 49.0253 60.901 45.5058 61.374C41.9864 61.8469 38.4047 61.466 35.0635 60.2633C31.7222 59.0606 28.7195 57.0716 26.3088 54.4641C23.8981 51.8566 22.1503 48.7073 21.2129 45.2821C20.2756 41.857 20.1763 38.2565 20.9234 34.7849C21.6704 31.3133 23.242 28.0724 25.5053 25.336L42.0201 30.841C42.3696 30.9573 42.7474 30.9573 43.0969 30.841L59.6117 25.336C62.8979 29.3009 64.694 34.2902 64.6889 39.4399ZM59.5847 21.7559L59.5792 21.7578L42.5585 27.4313L7.08553 15.6072L42.5585 3.78308L78.0314 15.6072L59.5847 21.7559Z" fill="#FBBD30"/>
</svg>
