<svg width="81" height="92" viewBox="0 0 81 92" fill="none" xmlns="http://www.w3.org/2000/svg">
<path d="M77.5139 13.3477V8.28232C77.5139 3.8662 73.8973 0.286133 69.4361 0.286133H16.3257C11.8645 0.286133 8.25103 3.8662 8.25103 8.28232V13.3477H6.73819C3.01331 13.3477 0 16.3367 0 20.0209V31.1959C0 34.8801 3.01641 37.8691 6.73819 37.8691L37.7902 37.8599C39.6866 37.8599 41.2335 39.3881 41.2335 41.2685V52.5354H34.6407V91.7201H51.1335V52.5354H44.5314V41.2685C44.5314 37.5843 41.5119 34.5953 37.7902 34.5953H33.7064V34.6045H6.74128C4.84481 34.6045 3.30103 33.0763 3.30103 31.1959V20.0209C3.30103 18.1436 4.84481 16.6123 6.74128 16.6123H8.25412V21.6777C8.25412 26.0938 11.8676 29.6739 16.3288 29.6739H69.4392C73.9004 29.6739 77.517 26.0938 77.517 21.6777V16.6123H80.8149V13.3477H77.517H77.5139ZM47.8294 88.4494H37.9325V55.7939H47.8294V88.4494ZM74.216 21.6777C74.216 24.2869 72.0689 26.4093 69.4361 26.4093H16.3257C13.6898 26.4093 11.549 24.2869 11.549 21.6777V8.28232C11.549 5.67307 13.6898 3.55076 16.3257 3.55076H69.4361C72.072 3.55076 74.216 5.67307 74.216 8.28232V21.6777Z" fill="#FBBD30"/>
</svg>
