<svg width="29" height="28" viewBox="0 0 29 28" fill="none" xmlns="http://www.w3.org/2000/svg">
<path d="M28.6517 20.3245C28.6414 18.4066 28.6414 16.4886 28.5898 14.5707C28.5692 13.7457 28.5074 12.9105 28.3217 12.1062C28.0227 10.8069 27.3215 9.74484 25.9913 9.31175C24.5271 8.84773 23.2175 9.28081 22.0317 10.1985C21.9698 10.2398 21.9182 10.3429 21.9182 10.4151C21.9079 11.3225 21.9182 12.2196 21.9182 13.1167C22.3513 13.0342 22.7432 12.9208 23.135 12.8796C23.6609 12.8383 24.1559 12.9414 24.4549 13.4364C24.7539 13.9313 24.9499 14.4779 24.9499 15.0553C24.9705 17.262 24.9705 19.4687 24.9499 21.6753C24.9395 22.6446 24.424 23.2943 23.5269 23.6139C23.4547 23.6449 23.3516 23.748 23.3412 23.8202C23.3412 24.9132 23.3516 25.9959 23.3516 27.0889C23.3516 27.2745 23.4237 27.3467 23.63 27.357C25.5582 27.3777 27.4865 26.0475 28.1568 24.212C28.6002 22.954 28.662 21.6341 28.6517 20.3245ZM24.7746 4.69216C25.7129 4.58904 26.6616 4.47561 27.5999 4.38281C27.7546 4.36219 27.8371 4.33125 27.8371 4.15595C27.8371 3.06293 27.8371 1.95959 27.8371 0.804688C26.3007 0.979985 24.8261 1.14497 23.3516 1.32027C21.6605 1.51619 20.0106 1.73273 18.3195 1.90803C18.2679 2.60922 18.2061 3.33103 18.1648 4.04253C18.1339 4.48592 18.1236 4.93963 18.0926 5.40366C19.031 5.30054 19.9384 5.20774 20.8355 5.11493C22.1451 4.98088 23.4547 4.83652 24.7746 4.69216ZM21.0211 15.9318C21.0624 14.0448 21.1139 12.1681 21.1655 10.281C21.1964 9.20863 21.2377 8.12592 21.2686 7.05351C21.2789 6.73385 21.2686 6.41419 21.2686 6.08422C21.1139 6.08422 21.0108 6.08422 20.8974 6.08422C20.0622 6.12547 19.2166 6.18734 18.3814 6.20796C18.0823 6.21827 18.0205 6.3317 18.0102 6.58949C17.9998 7.17725 17.9689 7.77532 17.9483 8.36308C17.8658 10.6935 17.773 13.0342 17.6905 15.3647C17.6802 15.674 17.6905 15.9833 17.6905 16.3546C18.7629 16.3236 19.7837 16.2824 20.8046 16.2514C21.0315 16.2411 21.0211 16.0968 21.0211 15.9318ZM22.3307 23.5624C21.5264 23.4696 21.1139 22.6962 21.083 21.9434C21.0521 21.0257 21.0315 20.108 21.0108 19.2006C21.0108 18.9634 20.949 18.8809 20.6912 18.8809C19.7941 18.9118 18.897 18.9325 17.9998 18.9325C17.7627 18.9325 17.7111 19.0356 17.7214 19.2418C17.7421 19.8193 17.7317 20.407 17.7421 20.9845C17.773 21.8816 17.7421 22.7787 17.8761 23.6552C18.0514 24.7791 18.5979 25.769 19.5569 26.429C20.4024 27.0064 21.4027 27.2333 22.4854 27.3673C22.4854 26.13 22.4854 24.9338 22.4751 23.7377C22.506 23.6861 22.4029 23.5727 22.3307 23.5624ZM5.22378 21.4794C5.2341 21.1185 5.08973 21.0051 4.72883 20.9948C3.42957 20.9329 3.04804 20.5308 3.0171 19.2212C2.99648 18.2313 3.0171 17.2414 2.99648 16.2411C2.98617 15.8184 2.94492 15.3956 2.91399 14.9728H0.0267439C0.0267439 16.5092 -0.0454373 17.9941 0.047367 19.4687C0.243287 22.49 1.8519 24.1914 4.68758 24.5317C5.08973 24.5832 5.2341 24.4698 5.22378 24.0676C5.21347 23.2015 5.21347 22.3456 5.22378 21.4794ZM0.0164323 13.8282H2.9243C2.9243 12.9621 2.91399 12.1371 2.9243 11.3225C2.95524 9.64172 3.42957 9.11583 5.08973 8.91991C5.12067 8.91991 5.1516 8.87866 5.21347 8.83742V6.08422C3.24396 5.85737 1.07853 7.24943 0.367026 9.16739C-0.200111 10.6935 0.098925 12.2609 0.0164323 13.8282ZM5.83217 27.4395H9.12157V2.79482C7.98729 2.91856 6.91489 3.03199 5.83217 3.14542V27.4395ZM11.9676 10.2913C11.9779 10.91 11.9779 11.5287 11.9779 12.1474C11.9779 12.5702 11.9779 12.9827 11.9779 13.3951H15.2879C15.2879 11.9721 15.3498 10.6213 15.2673 9.28081C15.1951 8.08467 14.6176 7.10507 13.5865 6.43481C12.5244 5.75425 11.3386 5.65113 10.1218 5.75425C10.0084 5.76456 9.82275 5.93986 9.82275 6.05329C9.80213 6.92977 9.81244 7.80626 9.81244 8.70336C10.0702 8.71368 10.2558 8.72399 10.4311 8.7343C11.5448 8.77555 11.9469 9.18801 11.9676 10.2913ZM15.3188 14.5707C14.3599 14.5707 13.4627 14.5913 12.5656 14.5603C12.1532 14.55 12.0088 14.6944 12.0191 15.1172C12.0294 16.2927 11.9985 17.4785 11.9985 18.654C11.9985 20.1595 11.4211 20.9742 9.98774 21.1185C9.93618 21.1185 9.89493 21.1701 9.85369 21.1907V24.2739C12.6894 24.4285 14.4939 22.923 15.0714 20.737C15.6076 18.7056 15.1951 16.6433 15.3188 14.5707Z" fill="url(#paint0_linear_89_1051)"/>
<defs>
<linearGradient id="paint0_linear_89_1051" x1="1.77961" y1="14.124" x2="28.8594" y2="14.124" gradientUnits="userSpaceOnUse">
<stop offset="0.0343547" stop-color="#273580"/>
<stop offset="0.2149" stop-color="#46317C"/>
<stop offset="0.6071" stop-color="#942673"/>
<stop offset="0.8615" stop-color="#CA1E6D"/>
</linearGradient>
</defs>
</svg>
