<svg width="216" height="46" viewBox="0 0 216 46" fill="none" xmlns="http://www.w3.org/2000/svg">
<path d="M16.0363 1.97769C14.7443 1.06491 13.178 0.629864 11.6033 0.746425H7.49538V24.6251H11.6033C13.1837 24.7422 14.7543 24.2925 16.0363 23.3558C17.1218 22.3976 17.8993 21.1362 18.2697 19.7323C18.8274 17.4328 19.0696 15.0674 18.9896 12.7019C18.9916 7.23147 18.0185 3.68219 16.0363 1.97769ZM19.5679 21.2202C18.5704 22.3508 17.3431 23.2529 15.9691 23.8655C14.5951 24.4782 13.1063 24.7871 11.6033 24.7715H0.541809V24.6271H3.78429V0.746425H0.541809V0.6021H11.6053C13.1082 0.586859 14.5969 0.895977 15.9708 1.50861C17.3448 2.12123 18.5721 3.02311 19.5699 4.15337C21.7014 6.4784 22.8846 9.52495 22.8842 12.6872C22.8838 15.8494 21.6999 18.8957 19.5679 21.2202Z" fill="#FBBD30"/>
<path d="M43.8567 16.0378C43.7849 12.8133 43.3522 10.784 42.5964 9.98587C42.3111 9.70673 41.9724 9.48884 41.6008 9.34545C41.2292 9.20205 40.8325 9.13615 40.4348 9.15174C39.476 9.10468 38.5316 9.40015 37.7686 9.98587C36.7955 10.8201 36.2909 12.8494 36.2191 16.0378H43.8567ZM46.7402 16.1822H36.2171C36.1822 16.4829 36.1702 16.7859 36.1813 17.0885C36.1371 18.6895 36.246 20.291 36.5063 21.8711C36.6688 22.7492 37.1112 23.5502 37.7666 24.1531C38.5288 24.7371 39.477 25.021 40.4328 24.9512C41.6291 24.9202 42.7975 24.5806 43.8259 23.9651C44.8543 23.3496 45.7081 22.4786 46.3055 21.4359L46.4132 21.5081C45.7954 22.5627 44.9236 23.4441 43.8781 24.071C42.8327 24.6979 41.6472 25.0502 40.4308 25.0955C39.4499 25.1133 38.477 24.9149 37.5806 24.514C36.6841 24.1132 35.8859 23.5198 35.242 22.7754C33.9148 21.1731 33.188 19.1538 33.188 17.0684C33.188 14.9831 33.9148 12.9638 35.242 11.3615C35.884 10.6124 36.681 10.0134 37.5773 9.60637C38.4736 9.19938 39.4474 8.99425 40.4308 9.00531C44.8997 9.00531 46.7721 13.3527 46.7362 16.0718V16.1821L46.7402 16.1822Z" fill="#FBBD30"/>
<path d="M92.6136 15.6392H89.6942V24.8795H89.5506C89.4929 24.4555 89.2801 24.0683 88.9538 23.7935C88.6275 23.5188 88.2111 23.3762 87.7858 23.3936C86.6332 23.3936 84.651 25.3507 81.1553 25.3507C79.1034 25.3685 77.0982 24.7341 75.4261 23.538C72.1119 21.1096 70.381 17.1612 70.381 12.7035C70.3235 9.43701 71.4651 6.26373 73.5875 3.79017C74.5671 2.59498 75.8009 1.63602 77.1979 0.983917C78.595 0.331818 80.1197 0.00319589 81.6598 0.0222696C82.4963 0.0491838 83.3233 0.208212 84.1106 0.493528C84.8343 0.730846 85.5845 0.876992 86.344 0.928624C87.3172 0.928624 87.9653 0.529617 88.073 0.130583H88.2166V6.87024H88.073C88.0564 5.13397 87.3717 3.47162 86.1626 2.23203C85.606 1.57932 84.9147 1.05642 84.1367 0.699724C83.3588 0.343033 82.5128 0.161121 81.6578 0.166657C80.0844 0.0596248 78.5248 0.521935 77.2607 1.47007C75.2786 3.1725 74.3054 6.90633 74.3054 12.7035C74.2391 15.2252 74.3959 17.7477 74.774 20.2414C74.979 21.644 75.6528 22.9347 76.6844 23.901C77.9654 24.8734 79.5518 25.3496 81.1533 25.2425C84.2163 25.2425 86.0191 23.8649 86.0191 21.8355V15.6393H82.7766V15.4949H92.6136V15.6392Z" fill="#FBBD30"/>
<path d="M109.117 12.6664C108.215 12.6664 107.639 12.159 107.639 11.5434C107.639 11.0722 108.036 10.5649 108.036 10.24C108.036 9.73267 107.747 9.48005 107.134 9.48005C106.161 9.48005 105.37 10.3864 104.791 12.2332V24.6258H107.025V24.7701H99.7462V24.6258H101.944V9.47805H99.7462V9.33365H104.791V11.762C105.404 9.91317 106.52 9.00879 108.143 9.00879C109.801 9.00879 110.63 9.73268 110.63 11.1464C110.628 11.5491 110.467 11.9345 110.184 12.219C109.901 12.5036 109.517 12.6643 109.117 12.6664Z" fill="#FBBD30"/>
<path d="M128.576 16.0753C128.071 16.5827 125.728 16.6548 125.008 16.7992C123.351 17.1261 122.522 18.6119 122.522 21.293C122.522 23.6491 123.387 24.8083 125.152 24.8083C126.917 24.8083 128.576 23.6131 128.576 22.2716V16.0753ZM133.767 23.6833C133.566 24.1364 133.227 24.5138 132.8 24.7614C132.373 25.0089 131.878 25.1138 131.388 25.0609C131.063 25.0847 130.737 25.0433 130.428 24.9392C130.119 24.8351 129.834 24.6703 129.59 24.4544C129.345 24.2385 129.145 23.9758 129.002 23.6816C128.859 23.3874 128.776 23.0676 128.757 22.7408C128.324 24.2267 126.524 25.0609 124.506 25.0609C121.804 25.0609 119.75 23.938 119.75 21.293C119.691 20.5799 119.823 19.864 120.134 19.2202C120.444 18.5764 120.921 18.0283 121.515 17.6334C122.375 17.1255 123.333 16.8045 124.324 16.6909C126.667 16.4744 127.999 16.2196 128.36 15.967C128.458 15.8633 128.532 15.7394 128.578 15.6041V12.8489C128.578 10.2039 127.315 9.15309 125.766 9.15309C124.721 9.15309 124.217 9.69652 124.217 10.7834C124.217 11.1825 124.468 11.762 124.468 12.0889C124.468 12.7766 123.963 13.32 122.954 13.32C122.755 13.328 122.556 13.2919 122.372 13.2143C122.189 13.1367 122.024 13.0195 121.89 12.871C121.756 12.7225 121.656 12.5462 121.597 12.3546C121.538 12.163 121.521 11.9607 121.548 11.762C121.548 10.4204 123.17 9.00879 125.764 9.00879C129.547 9.00879 131.421 11.1825 131.421 15.568V23.3584C131.421 24.1565 131.746 24.5535 132.359 24.5535C132.636 24.5344 132.904 24.44 133.132 24.2804C133.361 24.1208 133.542 23.902 133.657 23.6472L133.767 23.6833Z" fill="#FBBD30"/>
<path d="M148.396 25.0979C147.616 25.0922 146.845 24.9321 146.127 24.6267C145.593 24.3685 145.021 24.1973 144.434 24.1193C144.183 24.1197 143.936 24.1827 143.716 24.3028C143.496 24.4228 143.308 24.5962 143.171 24.8072H143.028V19.7338H143.171C143.151 20.405 143.269 21.0732 143.517 21.6966C143.765 22.3201 144.138 22.8854 144.613 23.3573C145.102 23.8683 145.69 24.2734 146.341 24.5475C146.991 24.8217 147.691 24.9592 148.396 24.9515C150.45 24.9515 151.82 23.8286 151.82 21.7631C151.82 19.8421 150.414 18.6469 147.712 17.7406C144.864 16.7621 143.532 15.8195 143.532 13.6458C143.532 10.8926 145.407 9.00768 147.712 9.00768C148.432 9.00768 149.549 9.37064 150.667 9.37064C151.172 9.37064 151.425 9.19014 151.425 8.86328H151.569V12.9581H151.425C151.44 12.4607 151.354 11.9654 151.174 11.502C150.993 11.0387 150.722 10.6167 150.375 10.2615C150.028 9.90626 149.614 9.62506 149.157 9.43477C148.7 9.24448 148.209 9.149 147.714 9.15408C145.949 9.15408 144.866 10.0605 144.866 11.6546C144.866 13.4292 146.2 14.7347 148.902 15.5689C151.822 16.4752 153.443 17.8148 153.443 20.0266C153.441 23.0685 151.712 25.0979 148.396 25.0979Z" fill="#FBBD30"/>
<path d="M168.937 25.0979C168.157 25.0922 167.386 24.9321 166.667 24.6267C166.133 24.3685 165.562 24.1973 164.974 24.1193C164.724 24.1194 164.477 24.1823 164.257 24.3024C164.037 24.4225 163.851 24.596 163.714 24.8072H163.57V19.7338H163.714C163.694 20.405 163.812 21.0732 164.06 21.6966C164.308 22.32 164.681 22.8854 165.156 23.3573C165.645 23.8683 166.233 24.2734 166.883 24.5475C167.534 24.8216 168.233 24.9591 168.939 24.9515C170.993 24.9515 172.363 23.8286 172.363 21.7631C172.363 19.8421 170.957 18.6469 168.255 17.7406C165.407 16.7621 164.075 15.8195 164.075 13.6458C164.075 10.8926 165.95 9.00768 168.255 9.00768C168.975 9.00768 170.091 9.37064 171.21 9.37064C171.715 9.37064 171.966 9.19014 171.966 8.86328H172.109V12.9581H171.966C171.98 12.4607 171.895 11.9654 171.714 11.502C171.534 11.0387 171.262 10.6167 170.916 10.2615C170.569 9.90626 170.155 9.62506 169.698 9.43477C169.24 9.24448 168.75 9.149 168.255 9.15408C166.49 9.15408 165.407 10.0605 165.407 11.6546C165.407 13.4292 166.741 14.7347 169.443 15.5689C172.363 16.4752 173.984 17.8148 173.984 20.0266C173.982 23.0685 172.251 25.0979 168.937 25.0979Z" fill="#FBBD30"/>
<path d="M194.486 16.0378C194.415 12.8133 193.982 10.784 193.224 9.98587C192.939 9.70658 192.6 9.4886 192.229 9.3452C191.857 9.20179 191.46 9.13597 191.062 9.15174C190.104 9.10467 189.159 9.40014 188.396 9.98587C187.423 10.8201 186.919 12.8494 186.847 16.0378H194.486ZM197.37 16.1822H186.849C186.814 16.4829 186.802 16.7859 186.813 17.0885C186.769 18.6895 186.878 20.291 187.138 21.8711C187.301 22.7494 187.744 23.5504 188.4 24.1531C189.163 24.7371 190.111 25.021 191.066 24.9512C192.263 24.9202 193.431 24.5806 194.46 23.9651C195.488 23.3496 196.342 22.4786 196.939 21.4359L197.047 21.5081C196.429 22.5627 195.557 23.4441 194.512 24.071C193.466 24.6979 192.281 25.0502 191.064 25.0955C190.084 25.1133 189.111 24.9149 188.214 24.514C187.318 24.1132 186.52 23.5198 185.876 22.7754C184.549 21.1731 183.822 19.1538 183.822 17.0684C183.822 14.9831 184.549 12.9638 185.876 11.3615C186.518 10.6124 187.315 10.0134 188.211 9.60637C189.107 9.19938 190.081 8.99425 191.064 9.00531C195.533 9.00531 197.406 13.3527 197.37 16.0718L197.37 16.1822Z" fill="#FBBD30"/>
<path d="M215.458 21.9091C214.918 24.0467 213.765 25.0975 211.998 25.0975C210.016 25.0975 209.043 23.9023 209.043 21.5461V9.48042H206.341V9.33602H209.043V5.02476C210.557 4.80821 211.458 4.26478 211.745 3.3584H211.889V9.33809H215.095V9.48249H211.889V23.5052C211.871 23.6476 211.885 23.7922 211.931 23.928C211.977 24.0637 212.054 24.1871 212.155 24.2886C212.256 24.39 212.378 24.4669 212.513 24.5132C212.648 24.5596 212.792 24.5742 212.934 24.556C213.943 24.556 214.88 23.5774 215.313 21.8389L215.458 21.9091Z" fill="#FBBD30"/>
<path d="M72.6128 40.1295H72.5669C72.5922 39.8757 72.5613 39.6193 72.4764 39.3789C72.3915 39.1385 72.2547 38.92 72.0759 38.7391C71.8971 38.5581 71.6807 38.4192 71.4422 38.3323C71.2037 38.2454 70.949 38.2127 70.6964 38.2365H69.2327V41.874H69.7213C69.8936 41.8991 70.0693 41.8855 70.2358 41.8343C70.4023 41.7832 70.5556 41.6956 70.6845 41.578C70.8135 41.4604 70.915 41.3156 70.9819 41.1539C71.0488 40.9922 71.0793 40.8177 71.0713 40.6428H71.1172V43.1394H71.0713C71.0773 42.9651 71.0454 42.7915 70.9778 42.6308C70.9103 42.4701 70.8087 42.3262 70.6802 42.209C70.5517 42.0918 70.3994 42.0042 70.2337 41.9522C70.0681 41.9003 69.8933 41.8852 69.7213 41.9082H69.2327V45.7523H70.2757V45.7984H67.0432V45.7523H68.0761V38.2365H67.0432V38.1904H72.6108V40.1295H72.6128Z" fill="#FBBD30"/>
<path d="M84.5512 38.2343H83.7016V41.8158H84.8024C85.0064 41.8373 85.2125 41.8159 85.4079 41.7531C85.6032 41.6903 85.7834 41.5874 85.9371 41.4508C86.1942 41.0482 86.3062 40.569 86.2541 40.0933C86.2542 38.85 85.6858 38.2343 84.5512 38.2343ZM89.1456 45.5095C89.0097 45.6385 88.8491 45.7385 88.6736 45.8033C88.4981 45.8681 88.3114 45.8963 88.1247 45.8864C87.0817 45.8864 86.5599 45.1906 86.5592 43.7989V43.1954C86.5592 42.295 85.8553 41.8619 84.8024 41.8619H83.7016V45.7501H85.0277V45.7962H81.5001V45.7501H82.543V38.2343H81.5001V38.1882H84.8104C85.486 38.1555 86.154 38.3433 86.7148 38.7236C86.9342 38.8692 87.1143 39.0672 87.2389 39.2999C87.3635 39.5326 87.4287 39.7928 87.4287 40.0571C87.425 40.3102 87.3587 40.5584 87.2358 40.7793C87.1129 41.0002 86.9373 41.1868 86.7248 41.3224C86.2245 41.6765 85.6231 41.8567 85.0118 41.8358C86.8604 41.8358 87.7557 42.6218 87.7557 43.9112V44.7895C87.7557 45.349 88.017 45.7921 88.4138 45.7921C88.5447 45.7894 88.6737 45.7598 88.7927 45.7049C88.9117 45.6501 89.0183 45.5712 89.1058 45.4733L89.1456 45.5095Z" fill="#FBBD30"/>
<path d="M100.698 43.1164L99.4155 39.5591L98.1114 43.1164H100.698ZM103.92 45.7954H100.574V45.7493H101.675L100.722 43.1605H98.1014L97.3077 45.3041C97.1721 45.6912 97.206 45.7493 97.3536 45.7493H98.2051V45.7955H96.187V45.7493H96.9468C97.0485 45.7493 97.1621 45.601 97.2638 45.3041L99.9181 38.0391H99.9739L102.933 45.7473H103.92L103.92 45.7954Z" fill="#FBBD30"/>
<path d="M112.989 38.2908V45.2249C112.989 45.5779 113.047 45.7503 113.171 45.7503H114.02V45.7964H111.901V45.7503H112.786C112.888 45.7503 112.946 45.5798 112.946 45.2249V38.2346H111.913V38.1885H114.306L118.116 43.9015V38.758C118.116 38.405 118.061 38.2346 117.935 38.2346H117.074V38.1885H119.193V38.2346H118.32C118.218 38.2346 118.16 38.4051 118.16 38.758V45.9308H118.104L112.989 38.2908Z" fill="#FBBD30"/>
<path d="M133.934 45.9568H133.888C133.852 45.8578 133.785 45.7732 133.698 45.7157C133.61 45.6582 133.506 45.6309 133.401 45.638C133.109 45.6636 132.82 45.7208 132.54 45.8085C132.219 45.9064 131.888 45.9637 131.553 45.9789C131.066 45.9861 130.583 45.8844 130.14 45.6812C129.697 45.478 129.304 45.1783 128.99 44.8039C128.306 44.0333 127.937 43.0312 127.958 41.9985C127.94 40.9706 128.299 39.9721 128.967 39.1931C129.273 38.8176 129.659 38.5161 130.097 38.3109C130.534 38.1058 131.012 38.0022 131.495 38.008C131.78 38.0222 132.062 38.0721 132.335 38.1564C132.598 38.23 132.868 38.2757 133.14 38.2928C133.447 38.2928 133.651 38.1665 133.685 38.0421H133.731V40.1637H133.685C133.679 39.8866 133.615 39.6138 133.496 39.364C133.376 39.1142 133.205 38.8931 132.993 38.7159C132.8 38.5105 132.568 38.346 132.311 38.2324C132.053 38.1187 131.776 38.0581 131.495 38.0542C130.999 38.0165 130.507 38.1627 130.111 38.4652C129.487 39.0006 129.182 40.1757 129.182 42.0005C129.182 43.8133 129.489 44.9883 130.111 45.5237C130.526 45.83 131.037 45.9759 131.551 45.9348C131.861 45.9434 132.169 45.887 132.456 45.7693C132.743 45.6516 133.003 45.4751 133.218 45.251C133.439 45.0218 133.612 44.7504 133.727 44.4529C133.842 44.1553 133.897 43.8376 133.888 43.5185H133.934V45.9568Z" fill="#FBBD30"/>
<path d="M148.958 45.7964H142.812V45.7503H143.845V38.2346H142.812V38.1885H148.38V40.1276H148.334C148.359 39.8737 148.328 39.6174 148.243 39.377C148.159 39.1366 148.022 38.9181 147.843 38.7372C147.664 38.5562 147.448 38.4173 147.209 38.3304C146.971 38.2435 146.716 38.2108 146.463 38.2346H145.012V41.8721H145.578C146.451 41.8721 146.95 41.4049 146.95 40.6409H146.996V43.1375H146.95C146.955 42.9626 146.922 42.7887 146.853 42.6279C146.785 42.4671 146.682 42.3232 146.553 42.2061C146.423 42.089 146.27 42.0016 146.104 41.9498C145.938 41.898 145.763 41.8832 145.59 41.9062H145.012V45.7503H146.485C148.164 45.7503 148.912 44.872 148.912 43.6408H148.958L148.958 45.7964Z" fill="#FBBD30"/>
</svg>
