<svg width="25" height="22" viewBox="0 0 25 22" fill="none" xmlns="http://www.w3.org/2000/svg">
<path fill-rule="evenodd" clip-rule="evenodd" d="M5.61843 13.1331C5.66893 13.1502 5.71991 13.1622 5.77083 13.1696C5.82638 13.3002 5.89813 13.469 5.98186 13.6664C6.18616 14.1482 6.46145 14.8 6.74561 15.4799C7.3251 16.8664 7.90964 18.2956 8.03874 18.7048C8.19856 19.2105 8.36749 19.5543 8.5519 19.7891C8.64725 19.9105 8.75755 20.0164 8.88659 20.0967C8.95155 20.1371 9.02017 20.1702 9.09179 20.1949C9.09496 20.1961 9.0981 20.1971 9.10125 20.1981C9.4705 20.3375 9.80713 20.2795 10.0179 20.2085C10.1307 20.1705 10.2219 20.1246 10.2866 20.0875C10.3196 20.0685 10.3474 20.0508 10.3696 20.0358L10.3749 20.0323L13.6358 17.9987L17.4025 20.8865C17.458 20.9291 17.5187 20.9649 17.5828 20.9929C18.0354 21.1903 18.4736 21.2592 18.8857 21.2029C19.2973 21.1467 19.6239 20.9739 19.8672 20.7792C20.1053 20.5887 20.2668 20.3753 20.3673 20.2167C20.4187 20.1357 20.4572 20.0641 20.4844 20.0093C20.4981 19.9817 20.509 19.9579 20.5176 19.9389L20.5284 19.9137L20.5326 19.9038L20.5343 19.8997L20.535 19.8977L20.5358 19.8958C20.5555 19.8463 20.5707 19.7951 20.5811 19.7428L24.0197 2.4063C24.0307 2.35086 24.0362 2.29446 24.0362 2.23793C24.0362 1.73024 23.8449 1.24749 23.3952 0.954547C23.0107 0.70417 22.5824 0.693393 22.3118 0.713931C22.0198 0.736096 21.7502 0.808174 21.5693 0.865761C21.4751 0.895737 21.3961 0.924652 21.3392 0.946713C21.3106 0.957801 21.2871 0.96732 21.2696 0.974577L21.2566 0.980092L1.97205 8.5451L1.96956 8.54603C1.95727 8.55053 1.94148 8.55641 1.92273 8.56368C1.8854 8.57822 1.83536 8.59864 1.77692 8.62518C1.66294 8.67687 1.50305 8.75752 1.33896 8.8699C1.07683 9.04944 0.473973 9.54108 0.575486 10.3526C0.656472 11 1.09997 11.3976 1.37018 11.5887C1.51855 11.6937 1.65951 11.7687 1.76217 11.8177C1.80979 11.8403 1.90867 11.8804 1.95157 11.898L1.9624 11.9024L5.61843 13.1331ZM21.9314 2.57374L21.9288 2.57491C21.9191 2.57909 21.9095 2.58308 21.8997 2.58691L2.59182 10.1611C2.58173 10.1651 2.57158 10.1689 2.56136 10.1724L2.55062 10.1765C2.53826 10.1813 2.51747 10.1897 2.49137 10.2015C2.47656 10.2082 2.46111 10.2156 2.44536 10.2234C2.467 10.2357 2.48771 10.2462 2.50611 10.2549C2.52378 10.2634 2.53725 10.2691 2.54463 10.2721L6.17063 11.4929C6.237 11.5152 6.29886 11.5448 6.35566 11.5806L18.3285 4.5717L18.3397 4.56508C18.3484 4.55992 18.3599 4.5533 18.3737 4.54553C18.4009 4.53013 18.4383 4.50963 18.4828 4.48695C18.5659 4.44467 18.6989 4.38189 18.8487 4.3356C18.9529 4.30337 19.2604 4.21258 19.5928 4.3192C19.7979 4.385 20.0103 4.52647 20.1486 4.76612C20.2171 4.88518 20.2537 5.00478 20.2714 5.11427C20.3185 5.28674 20.311 5.45706 20.2742 5.60409C20.1948 5.92082 19.9724 6.16787 19.7699 6.35684C19.5963 6.51885 17.3517 8.68322 15.1374 10.8198C14.0331 11.8853 12.9402 12.9403 12.1232 13.7288L11.5867 14.2469L18.3618 19.4411C18.5172 19.4967 18.609 19.494 18.6515 19.4881C18.7021 19.4812 18.7436 19.4617 18.7859 19.4279C18.8332 19.39 18.8746 19.3388 18.9056 19.29L18.9068 19.288L22.2419 2.47354C22.1924 2.48544 22.1424 2.4996 22.0941 2.51495C22.0395 2.53234 21.9944 2.54891 21.9647 2.56048C21.9498 2.56621 21.9392 2.57056 21.9334 2.57296L21.9314 2.57374ZM12.1687 16.874L10.817 15.8377L10.4895 17.9211L12.1687 16.874ZM9.57706 13.7813L10.9212 12.4836C11.7382 11.695 12.8313 10.64 13.9358 9.57431L15.0578 8.4918L7.5349 12.8957L7.57526 12.9909C7.78029 13.4744 8.05681 14.129 8.34247 14.8125C8.55608 15.3235 8.77945 15.8617 8.98289 16.3599L9.30946 14.2826C9.34094 14.0822 9.43878 13.9089 9.57706 13.7813Z" fill="#FFE9B7"/>
</svg>
