<svg width="57" height="41" viewBox="0 0 57 41" fill="none" xmlns="http://www.w3.org/2000/svg">
<g opacity="0.5">
<path fill-rule="evenodd" clip-rule="evenodd" d="M20.2905 1.30996C8.26812 7.92748 1.58918 15.6295 0.253628 24.4163C-1.82553 38.0953 12.4472 44.7908 19.679 38.775C26.9109 32.7592 22.5758 25.1233 17.3392 23.0361C12.1027 20.9488 8.90032 21.6757 9.45892 18.8866C10.0175 16.0973 17.4676 8.36397 24.0128 4.76247C24.447 4.44598 24.6123 3.83189 24.1942 3.36612C23.9191 3.05962 23.3796 2.45876 22.5758 1.56331C21.8729 0.780282 21.1995 0.809577 20.2905 1.30996Z" fill="#FBBD30"/>
<path fill-rule="evenodd" clip-rule="evenodd" d="M51.9414 1.30996C39.9192 7.92748 33.2402 15.6295 31.9046 24.4163C29.8255 38.0953 44.0983 44.7908 51.3301 38.775C58.562 32.7592 54.2269 25.1233 48.9903 23.0361C43.7538 20.9488 40.5512 21.6757 41.11 18.8866C41.6686 16.0973 49.1187 8.36397 55.6639 4.76247C56.0981 4.44598 56.2634 3.83189 55.8451 3.36612C55.5702 3.05962 55.0307 2.45876 54.2269 1.56331C53.524 0.780282 52.8506 0.809577 51.9414 1.30996Z" fill="#FBBD30"/>
</g>
</svg>
