<svg width="40" height="41" viewBox="0 0 40 41" fill="none" xmlns="http://www.w3.org/2000/svg">
<path d="M40 20.1581C39.9965 23.9715 38.9165 27.7055 36.8855 30.9259C34.8545 34.1463 31.9559 36.7207 28.5271 38.3496C27.2185 36.5681 26.0709 34.6726 25.0981 32.6856C25.2798 32.599 25.4545 32.5141 25.62 32.4327C26.3347 32.082 26.899 31.8049 27.3296 31.8049C28.2803 31.8049 28.8717 32.3045 29.1364 33.3324L29.1554 33.4076H29.4877V23.4433H32.6346V23.0864H21.9457C21.2637 19.676 20.8878 15.9751 20.6712 11.8221L20.5294 6.76371C20.5955 6.76286 20.6579 6.75818 20.725 6.75818C22.5907 6.75818 24.155 7.47605 25.5078 8.95301C26.857 10.4266 27.5411 12.0864 27.5411 13.8867V13.9872H27.8958V6.51811H27.5645L27.5446 6.59183C27.4407 6.97297 26.7858 7.37811 25.7755 7.37811C25.2764 7.37811 24.4531 7.2175 23.3988 6.91475C22.5396 6.60505 21.6377 6.43181 20.7255 6.40126C20.6564 6.40126 20.5888 6.4053 20.5197 6.40636L20.3609 0.0528201C25.5997 0.153248 30.5905 2.31487 34.2622 6.07375C37.9339 9.83262 39.9939 14.8892 40 20.1581ZM11.9469 10.5001C9.63672 13.2179 8.46521 16.4737 8.46521 20.1776C8.46521 25.1758 10.4114 29.354 13.9469 31.9434C14.2717 32.1699 14.6082 32.379 14.9551 32.5697C13.9713 34.5989 12.8056 36.5338 11.4723 38.3501C7.38713 36.4139 4.07394 33.1442 2.07206 29.0733C0.0701869 25.0025 -0.502504 20.3701 0.447214 15.9302C1.39693 11.4904 3.81314 7.50446 7.30252 4.62134C10.7919 1.73822 15.149 0.127638 19.6646 0.0517578L19.4793 6.46308C16.5413 6.75754 14.0124 8.11106 11.9469 10.5001ZM27.0437 38.9825C22.5041 40.7054 17.4957 40.7054 12.9562 38.9825C14.074 37.072 15.0731 35.0937 15.9479 33.0589C17.2867 33.63 18.727 33.9212 20.1812 33.9149C21.5199 33.9104 22.845 33.6443 24.0827 33.1316C24.9505 35.1406 25.9394 37.0945 27.0437 38.9825ZM20.173 6.77411C20.1761 13.4754 20.4639 18.6475 21.2006 23.0864H18.7998C19.5356 18.6516 19.8239 13.4856 19.8274 6.79409C19.9406 6.78537 20.0563 6.77921 20.173 6.77411ZM24.7294 31.8827C23.5131 29.1813 22.6046 26.3501 22.0214 23.4433H25.3261V30.025C25.3359 30.6934 25.1262 31.3464 24.7294 31.8827ZM19.3292 11.8221C18.9109 19.8429 17.891 26.1779 15.2244 31.9831C14.337 31.1318 13.7216 29.8932 13.4021 28.2864C13.0637 26.5833 12.8993 23.931 12.8993 20.1776C12.8993 13.9879 13.9592 9.93771 16.0498 8.14038C16.8828 7.42187 18.0323 6.98528 19.4685 6.82764L19.3292 11.8221ZM18.7409 23.4433C18.2132 26.6053 17.3324 29.6974 16.1153 32.6608C17.1521 33.2794 18.5115 33.5976 20.1817 33.5976C21.7378 33.5976 23.0025 33.2665 23.8898 32.6711C22.6704 29.7044 21.788 26.6086 21.2595 23.4427H18.7409L18.7409 23.4433Z" fill="#FBBD30"/>
</svg>
