<svg width="101" height="106" viewBox="0 0 101 106" fill="none" xmlns="http://www.w3.org/2000/svg">
<path d="M7.28164 84.976C6.67447 84.547 5.93838 84.3426 5.19834 84.3974H3.26783V95.6192H5.19834C5.94106 95.6742 6.67915 95.4629 7.28164 95.0227C7.79178 94.5723 8.15714 93.9796 8.33123 93.3198C8.59333 92.2391 8.70716 91.1275 8.66955 90.0158C8.67048 87.445 8.21316 85.777 7.28164 84.976ZM8.94131 94.019C8.47252 94.5503 7.89577 94.9743 7.25005 95.2622C6.60432 95.5501 5.90466 95.6953 5.19834 95.688H0V95.6201H1.5238V84.3974H0V84.3296H5.19928C5.90557 84.3224 6.60518 84.4677 7.25088 84.7556C7.89658 85.0435 8.47335 85.4673 8.94227 85.9985C9.94395 87.0911 10.5 88.5228 10.4998 90.0089C10.4996 91.495 9.94325 92.9266 8.94131 94.019Z" fill="#FBBD30"/>
<path d="M20.3558 91.5843C20.3221 90.0689 20.1187 89.1153 19.7635 88.7402C19.6295 88.609 19.4703 88.5066 19.2957 88.4392C19.121 88.3718 18.9346 88.3409 18.7477 88.3482C18.2971 88.3261 17.8533 88.4649 17.4947 88.7402C17.0374 89.1322 16.8003 90.0859 16.7666 91.5843H20.3558ZM21.7109 91.6521H16.7656C16.7492 91.7935 16.7436 91.9359 16.7487 92.0781C16.728 92.8305 16.7792 93.5831 16.9015 94.3256C16.9779 94.7383 17.1858 95.1147 17.4938 95.3981C17.852 95.6725 18.2976 95.8059 18.7467 95.7731C19.309 95.7586 19.8581 95.599 20.3413 95.3097C20.8246 95.0204 21.2259 94.6112 21.5067 94.1211L21.5572 94.1551C21.2669 94.6507 20.8572 95.0649 20.3659 95.3595C19.8746 95.6541 19.3175 95.8197 18.7458 95.841C18.2848 95.8493 17.8276 95.7561 17.4064 95.5677C16.9851 95.3793 16.6099 95.1004 16.3073 94.7506C15.6836 93.9976 15.3421 93.0486 15.3421 92.0686C15.3421 91.0887 15.6836 90.1397 16.3073 89.3866C16.609 89.0346 16.9836 88.7531 17.4048 88.5618C17.826 88.3706 18.2837 88.2742 18.7458 88.2794C20.846 88.2794 21.7259 90.3224 21.7091 91.6003V91.6521L21.7109 91.6521Z" fill="#FBBD30"/>
<path d="M43.2691 91.3968H41.8972V95.7392H41.8297C41.8026 95.54 41.7026 95.358 41.5492 95.2289C41.3958 95.0998 41.2001 95.0328 41.0003 95.0409C40.4586 95.0409 39.5271 95.9607 37.8843 95.9607C36.92 95.9691 35.9777 95.6709 35.1919 95.1088C33.6343 93.9676 32.8209 92.112 32.8209 90.0171C32.7939 88.482 33.3304 86.9907 34.3278 85.8283C34.7882 85.2666 35.368 84.816 36.0245 84.5095C36.6811 84.203 37.3976 84.0486 38.1214 84.0576C38.5145 84.0702 38.9031 84.145 39.2731 84.279C39.6133 84.3906 39.9658 84.4593 40.3227 84.4835C40.7801 84.4835 41.0846 84.296 41.1353 84.1085H41.2027V87.2758H41.1353C41.1275 86.4598 40.8057 85.6786 40.2375 85.0961C39.9759 84.7893 39.651 84.5436 39.2854 84.3759C38.9198 84.2083 38.5223 84.1228 38.1204 84.1254C37.381 84.0751 36.6481 84.2924 36.054 84.738C35.1225 85.538 34.6652 87.2927 34.6652 90.0171C34.634 91.2022 34.7077 92.3876 34.8854 93.5595C34.9817 94.2187 35.2984 94.8253 35.7832 95.2794C36.3852 95.7364 37.1307 95.9602 37.8833 95.9098C39.3228 95.9098 40.17 95.2624 40.17 94.3087V91.3968H38.6462V91.329H43.2691V91.3968Z" fill="#FBBD30"/>
<path d="M51.0247 89.9996C50.6011 89.9996 50.3303 89.7612 50.3303 89.4719C50.3303 89.2504 50.5168 89.012 50.5168 88.8593C50.5168 88.6209 50.3809 88.5022 50.0932 88.5022C49.6359 88.5022 49.2638 88.9281 48.9921 89.796V95.6199H50.0416V95.6878H46.6211V95.6199H47.6538V88.5012H46.6211V88.4334H48.992V89.5746C49.2797 88.7057 49.8045 88.2807 50.5674 88.2807C51.3461 88.2807 51.736 88.6209 51.736 89.2853C51.7348 89.4745 51.6594 89.6556 51.5263 89.7894C51.3931 89.9231 51.2129 89.9986 51.0247 89.9996Z" fill="#FBBD30"/>
<path d="M60.1696 91.6018C59.9325 91.8403 58.8313 91.8742 58.493 91.942C57.7143 92.0956 57.3244 92.7939 57.3244 94.0539C57.3244 95.1612 57.7311 95.7059 58.5605 95.7059C59.3899 95.7059 60.1696 95.1442 60.1696 94.5138V91.6018ZM62.609 95.1772C62.5147 95.3901 62.3556 95.5675 62.1547 95.6838C61.9538 95.8002 61.7214 95.8494 61.4909 95.8246C61.3383 95.8358 61.1851 95.8163 61.04 95.7674C60.8949 95.7185 60.761 95.641 60.646 95.5396C60.531 95.4381 60.4371 95.3147 60.37 95.1764C60.3028 95.0382 60.2637 94.8879 60.2549 94.7343C60.0515 95.4326 59.2053 95.8246 58.2569 95.8246C56.987 95.8246 56.0218 95.2969 56.0218 94.0539C55.9941 93.7188 56.0564 93.3823 56.2023 93.0798C56.3482 92.7772 56.5723 92.5197 56.8511 92.334C57.2557 92.0954 57.7055 91.9445 58.1716 91.8911C59.2727 91.7894 59.8987 91.6697 60.0684 91.5509C60.1143 91.5022 60.1492 91.444 60.1705 91.3804V90.0856C60.1705 88.8425 59.5773 88.3487 58.8491 88.3487C58.3581 88.3487 58.121 88.6041 58.121 89.1149C58.121 89.3024 58.2391 89.5748 58.2391 89.7284C58.2391 90.0516 58.002 90.307 57.5278 90.307C57.4341 90.3107 57.3408 90.2938 57.2543 90.2573C57.1679 90.2208 57.0904 90.1658 57.0274 90.096C56.9645 90.0262 56.9175 89.9433 56.8898 89.8533C56.862 89.7632 56.8543 89.6682 56.8671 89.5748C56.8671 88.9443 57.629 88.2809 58.8482 88.2809C60.626 88.2809 61.5069 89.3024 61.5069 91.3634V95.0245C61.5069 95.3996 61.6596 95.5862 61.9474 95.5862C62.0778 95.5772 62.2034 95.5328 62.3108 95.4578C62.4183 95.3828 62.5035 95.28 62.5574 95.1602L62.609 95.1772Z" fill="#FBBD30"/>
<path d="M69.4841 95.842C69.1176 95.8393 68.7552 95.7641 68.4176 95.6205C68.1666 95.4992 67.8981 95.4187 67.622 95.3821C67.5042 95.3823 67.3883 95.4119 67.2847 95.4683C67.1812 95.5247 67.0932 95.6062 67.0288 95.7053H66.9613V93.3211H67.0288C67.0193 93.6366 67.0746 93.9506 67.1911 94.2435C67.3077 94.5365 67.4831 94.8022 67.7063 95.024C67.9362 95.2641 68.2125 95.4545 68.5182 95.5833C68.8239 95.7122 69.1526 95.7768 69.4841 95.7732C70.4494 95.7732 71.0932 95.2455 71.0932 94.2748C71.0932 93.372 70.4325 92.8104 69.1626 92.3844C67.8244 91.9245 67.1984 91.4816 67.1984 90.4601C67.1984 89.1662 68.0793 88.2804 69.1626 88.2804C69.5009 88.2804 70.0257 88.451 70.5515 88.451C70.7886 88.451 70.9076 88.3661 70.9076 88.2125H70.9751V90.1369H70.9076C70.9144 89.9031 70.8742 89.6704 70.7894 89.4526C70.7046 89.2348 70.577 89.0365 70.4141 88.8696C70.2512 88.7027 70.0565 88.5705 69.8416 88.4811C69.6268 88.3917 69.3961 88.3468 69.1636 88.3492C68.3342 88.3492 67.8253 88.7751 67.8253 89.5243C67.8253 90.3583 68.4523 90.9718 69.7221 91.3638C71.0941 91.7898 71.856 92.4193 71.856 93.4587C71.8551 94.8883 71.0426 95.842 69.4841 95.842Z" fill="#FBBD30"/>
<path d="M79.1372 95.842C78.7707 95.8393 78.4083 95.7641 78.0707 95.6205C77.8197 95.4992 77.5512 95.4187 77.2751 95.3821C77.1574 95.3821 77.0416 95.4117 76.9381 95.4681C76.8347 95.5246 76.7469 95.6061 76.6828 95.7053H76.6153V93.3211H76.6828C76.6733 93.6366 76.7286 93.9506 76.8452 94.2435C76.9617 94.5365 77.1371 94.8022 77.3603 95.024C77.5902 95.2641 77.8665 95.4545 78.1722 95.5833C78.478 95.7122 78.8066 95.7768 79.1381 95.7732C80.1034 95.7732 80.7472 95.2455 80.7472 94.2748C80.7472 93.372 80.0865 92.8104 78.8167 92.3844C77.4784 91.9245 76.8524 91.4816 76.8524 90.4601C76.8524 89.1662 77.7333 88.2804 78.8167 88.2804C79.155 88.2804 79.6798 88.451 80.2055 88.451C80.4426 88.451 80.5607 88.3661 80.5607 88.2125H80.6282V90.1369H80.5607C80.5675 89.9031 80.5274 89.6704 80.4426 89.4526C80.3578 89.2348 80.2301 89.0365 80.0672 88.8696C79.9044 88.7027 79.7097 88.5705 79.4948 88.4811C79.2799 88.3917 79.0492 88.3468 78.8167 88.3492C77.9873 88.3492 77.4784 88.7751 77.4784 89.5243C77.4784 90.3583 78.1054 90.9718 79.3752 91.3638C80.7472 91.7898 81.5091 92.4193 81.5091 93.4587C81.5081 94.8883 80.6947 95.842 79.1372 95.842Z" fill="#FBBD30"/>
<path d="M91.1443 91.5843C91.1105 90.0689 90.9072 89.1153 90.5511 88.7402C90.4171 88.6089 90.2579 88.5065 90.0833 88.4391C89.9086 88.3717 89.7221 88.3408 89.5352 88.3482C89.0846 88.3261 88.6408 88.4649 88.2822 88.7402C87.8249 89.1322 87.5878 90.0859 87.5541 91.5843H91.1443ZM92.4994 91.6521H87.555C87.5386 91.7935 87.533 91.9359 87.5381 92.0781C87.5174 92.8305 87.5686 93.5831 87.6909 94.3256C87.7676 94.7384 87.9758 95.1148 88.2841 95.3981C88.6423 95.6725 89.0879 95.8059 89.5371 95.7731C90.0993 95.7586 90.6484 95.599 91.1317 95.3097C91.615 95.0204 92.0162 94.6112 92.297 94.1211L92.3476 94.1551C92.0572 94.6507 91.6475 95.0649 91.1562 95.3595C90.6649 95.6541 90.1078 95.8197 89.5362 95.841C89.0752 95.8493 88.618 95.7561 88.1967 95.5677C87.7754 95.3793 87.4003 95.1004 87.0977 94.7506C86.474 93.9976 86.1324 93.0486 86.1324 92.0686C86.1324 91.0887 86.474 90.1397 87.0977 89.3866C87.3994 89.0346 87.774 88.7531 88.1952 88.5618C88.6164 88.3706 89.074 88.2742 89.5362 88.2794C91.6363 88.2794 92.5163 90.3224 92.4994 91.6003L92.4994 91.6521Z" fill="#FBBD30"/>
<path d="M101 94.3434C100.746 95.348 100.204 95.8418 99.3741 95.8418C98.4426 95.8418 97.9852 95.2801 97.9852 94.1729V88.5026H96.7154V88.4347H97.9852V86.4086C98.6965 86.3069 99.1201 86.0515 99.2551 85.6255H99.3225V88.4357H100.829V88.5035H99.3225V95.0935C99.314 95.1604 99.3208 95.2284 99.3425 95.2922C99.3642 95.356 99.4001 95.414 99.4475 95.4616C99.4949 95.5093 99.5526 95.5454 99.616 95.5672C99.6795 95.589 99.7471 95.5959 99.8136 95.5873C100.288 95.5873 100.728 95.1275 100.932 94.3104L101 94.3434Z" fill="#FBBD30"/>
<path d="M33.8697 102.906H33.8482C33.8601 102.787 33.8455 102.667 33.8056 102.554C33.7657 102.441 33.7015 102.338 33.6174 102.253C33.5334 102.168 33.4317 102.103 33.3196 102.062C33.2075 102.021 33.0878 102.006 32.9691 102.017H32.2813V103.726H32.5109C32.5919 103.738 32.6744 103.732 32.7527 103.708C32.8309 103.684 32.9029 103.642 32.9636 103.587C33.0242 103.532 33.0719 103.464 33.1033 103.388C33.1347 103.312 33.1491 103.23 33.1453 103.148H33.1669V104.321H33.1453C33.1481 104.239 33.1331 104.157 33.1014 104.082C33.0696 104.006 33.0219 103.939 32.9615 103.884C32.9011 103.829 32.8295 103.787 32.7517 103.763C32.6739 103.739 32.5917 103.732 32.5109 103.742H32.2813V105.549H32.7714V105.571H31.2523V105.549H31.7377V102.017H31.2523V101.995H33.8688V102.906H33.8697Z" fill="#FBBD30"/>
<path d="M39.4802 102.015H39.081V103.699H39.5983C39.6942 103.709 39.7911 103.699 39.8829 103.669C39.9747 103.64 40.0593 103.591 40.1316 103.527C40.2524 103.338 40.305 103.113 40.2806 102.889C40.2806 102.305 40.0135 102.015 39.4802 102.015ZM41.6394 105.434C41.5755 105.495 41.5001 105.542 41.4176 105.572C41.3351 105.603 41.2474 105.616 41.1596 105.612C40.6695 105.612 40.4243 105.285 40.424 104.631V104.347C40.424 103.924 40.0931 103.72 39.5983 103.72H39.081V105.548H39.7042V105.569H38.0464V105.548H38.5365V102.015H38.0464V101.994H39.6021C39.9196 101.978 40.2335 102.067 40.4971 102.245C40.6002 102.314 40.6848 102.407 40.7433 102.516C40.8019 102.626 40.8326 102.748 40.8326 102.872C40.8308 102.991 40.7997 103.108 40.7419 103.211C40.6842 103.315 40.6016 103.403 40.5017 103.467C40.2667 103.633 39.984 103.718 39.6967 103.708C40.5655 103.708 40.9862 104.077 40.9862 104.683V105.096C40.9862 105.359 41.109 105.567 41.2955 105.567C41.357 105.566 41.4176 105.552 41.4736 105.526C41.5295 105.501 41.5796 105.463 41.6207 105.417L41.6394 105.434Z" fill="#FBBD30"/>
<path d="M47.0683 104.31L46.4657 102.638L45.8528 104.31H47.0683ZM48.5827 105.569H47.0102V105.547H47.5275L47.0795 104.331H45.8481L45.4751 105.338C45.4114 105.52 45.4273 105.547 45.4967 105.547H45.8968V105.569H44.9485V105.547H45.3055C45.3533 105.547 45.4067 105.477 45.4545 105.338L46.7019 101.924H46.7281L48.1188 105.546H48.5827L48.5827 105.569Z" fill="#FBBD30"/>
<path d="M52.8448 102.042V105.3C52.8448 105.466 52.8719 105.547 52.9301 105.547H53.3293V105.569H52.3331V105.547H52.7492C52.797 105.547 52.8242 105.467 52.8242 105.3V102.015H52.3387V101.993H53.4633L55.2542 104.678V102.261C55.2542 102.095 55.228 102.015 55.1689 102.015H54.7641V101.993H55.7603V102.015H55.3498C55.302 102.015 55.2748 102.095 55.2748 102.261V105.632H55.2486L52.8448 102.042Z" fill="#FBBD30"/>
<path d="M62.6877 105.644H62.6661C62.6493 105.598 62.6179 105.558 62.5767 105.531C62.5354 105.504 62.4866 105.491 62.4375 105.494C62.3 105.506 62.1643 105.533 62.0326 105.574C61.8819 105.62 61.7261 105.647 61.5687 105.655C61.3399 105.658 61.1131 105.61 60.9048 105.515C60.6966 105.419 60.512 105.278 60.3645 105.102C60.043 104.74 59.8696 104.269 59.8791 103.784C59.8709 103.301 60.0397 102.832 60.3532 102.466C60.4971 102.289 60.6786 102.147 60.8843 102.051C61.09 101.955 61.3146 101.906 61.5416 101.909C61.6754 101.915 61.808 101.939 61.9361 101.978C62.0597 102.013 62.1866 102.034 62.3147 102.042C62.459 102.042 62.5546 101.983 62.5705 101.925H62.5921V102.922H62.5705C62.5681 102.791 62.5378 102.663 62.4816 102.546C62.4255 102.428 62.3449 102.325 62.2453 102.241C62.1547 102.145 62.0457 102.067 61.9248 102.014C61.8039 101.961 61.6736 101.932 61.5416 101.93C61.3086 101.913 61.0772 101.981 60.8912 102.123C60.5978 102.375 60.4545 102.927 60.4545 103.785C60.4545 104.637 60.5988 105.189 60.8912 105.441C61.0864 105.585 61.3265 105.653 61.5678 105.634C61.7134 105.638 61.8583 105.611 61.9931 105.556C62.128 105.501 62.25 105.418 62.3512 105.312C62.4551 105.205 62.5364 105.077 62.5905 104.937C62.6446 104.798 62.6703 104.648 62.6661 104.498H62.6877V105.644Z" fill="#FBBD30"/>
<path d="M69.7482 105.569H66.86V105.547H67.3454V102.015H66.86V101.994H69.4765V102.905H69.4549C69.4668 102.786 69.4523 102.665 69.4124 102.552C69.3725 102.439 69.3082 102.336 69.2242 102.251C69.1402 102.166 69.0385 102.101 68.9264 102.06C68.8143 102.019 68.6946 102.004 68.5759 102.015H67.8936V103.725H68.1598C68.5703 103.725 68.8046 103.505 68.8046 103.146H68.8261V104.319H68.8046C68.8068 104.237 68.7913 104.155 68.759 104.08C68.7268 104.004 68.6786 103.937 68.6178 103.882C68.5571 103.827 68.4851 103.786 68.407 103.761C68.3289 103.737 68.2465 103.73 68.1654 103.741H67.8936V105.547H68.5862C69.3753 105.547 69.7267 105.135 69.7267 104.556H69.7483L69.7482 105.569Z" fill="#FBBD30"/>
<path d="M87.1352 37.459C87.1289 44.4394 85.1519 51.2746 81.4341 57.1695C77.7163 63.0644 72.4106 67.7768 66.1341 70.7586C63.7387 67.4976 61.6381 64.0278 59.8574 60.3906C60.19 60.2322 60.5098 60.0767 60.8126 59.9277C62.1209 59.2857 63.1539 58.7785 63.9421 58.7785C65.6824 58.7785 66.7648 59.693 67.2494 61.5746L67.2842 61.7123H67.8926V43.4726H73.653V42.8193H54.087C52.8386 36.5766 52.1505 29.8022 51.754 22.2002L51.4944 12.9407C51.6153 12.9392 51.7297 12.9306 51.8524 12.9306C55.2677 12.9306 58.131 14.2447 60.6073 16.9482C63.077 19.6456 64.3292 22.684 64.3292 25.9794V26.1633H64.9785V12.4912H64.3721L64.3358 12.6261C64.1455 13.3238 62.9466 14.0654 61.0973 14.0654C60.1838 14.0654 58.6767 13.7714 56.7469 13.2172C55.1741 12.6503 53.5232 12.3332 51.8533 12.2773C51.7268 12.2773 51.6031 12.2847 51.4766 12.2866L51.186 0.65647C60.7755 0.840304 69.9112 4.79715 76.6323 11.6778C83.3533 18.5584 87.1241 27.8143 87.1352 37.459ZM35.7842 19.7801C31.5554 24.7552 29.4109 30.7149 29.4109 37.4948C29.4109 46.6439 32.9734 54.2921 39.4451 59.0321C40.0397 59.4467 40.6557 59.8293 41.2906 60.1785C39.4898 63.893 37.3559 67.4347 34.9154 70.7595C27.4375 67.2152 21.3727 61.2301 17.7083 53.7784C14.0439 46.3267 12.9956 37.8471 14.734 29.72C16.4725 21.5928 20.8953 14.2967 27.2826 9.01913C33.6699 3.74159 41.6456 0.793424 49.9114 0.654526L49.5721 12.3904C44.1942 12.9294 39.5651 15.407 35.7842 19.7801ZM63.4188 71.9172C55.1091 75.0709 45.9413 75.0709 37.6316 71.9172C39.6778 68.4199 41.5067 64.7986 43.1079 61.074C45.5586 62.1194 48.1951 62.6525 50.8571 62.6408C53.3075 62.6326 55.733 62.1456 57.9988 61.207C59.5873 64.8845 61.3973 68.4612 63.4188 71.9172ZM50.842 12.9598C50.8477 25.2265 51.3744 34.694 52.7229 42.8193H48.3284C49.6752 34.7014 50.2029 25.2452 50.2094 12.9963C50.4165 12.9804 50.6283 12.9691 50.842 12.9598ZM59.1825 58.9209C56.956 53.976 55.293 48.7936 54.2254 43.4726H60.2747V55.5205C60.2927 56.7439 59.9088 57.9392 59.1825 58.9209ZM49.2975 22.2002C48.5317 36.8821 46.6647 48.4784 41.7836 59.1047C40.1593 57.5464 39.0327 55.2791 38.4479 52.3379C37.8284 49.2203 37.5275 44.3654 37.5275 37.4948C37.5275 26.1645 39.4676 18.7507 43.2944 15.4607C44.8193 14.1455 46.9234 13.3463 49.5524 13.0578L49.2975 22.2002ZM48.2206 43.4726C47.2545 49.2607 45.6423 54.9207 43.4144 60.3453C45.3123 61.4775 47.8007 62.0601 50.858 62.0601C53.7064 62.0601 56.0214 61.4539 57.6457 60.3642C55.4134 54.9336 53.7983 49.2668 52.8308 43.4716H48.2206L48.2206 43.4726Z" fill="#FBBD30"/>
</svg>
