<svg width="30" height="33" viewBox="0 0 30 33" fill="none" xmlns="http://www.w3.org/2000/svg">
<path d="M28.4901 22.9503L22.2263 19.9676C21.9587 19.8408 21.6613 19.8141 21.3789 19.8915C21.0965 19.9688 20.8443 20.146 20.6604 20.3963L17.8864 24.162C13.533 21.8814 10.0294 17.9885 7.97683 13.1514L11.366 10.0692C11.5917 9.8652 11.7515 9.585 11.8211 9.27106C11.8908 8.95711 11.8665 8.6265 11.7519 8.32929L9.0674 1.36957C8.94162 1.04918 8.71918 0.78759 8.43842 0.629911C8.15766 0.472232 7.83618 0.428345 7.52942 0.505818L1.71308 1.99719C1.41733 2.07307 1.15345 2.2581 0.964527 2.52208C0.775602 2.78605 0.672783 3.11338 0.672852 3.45065C0.672852 19.3896 12.2999 32.2838 26.6227 32.2838C26.9263 32.284 27.221 32.1698 27.4587 31.9599C27.6964 31.75 27.863 31.4567 27.9313 31.128L29.2736 24.6654C29.3429 24.3229 29.3025 23.9642 29.1595 23.6512C29.0165 23.3382 28.7798 23.0903 28.4901 22.9503Z" fill="#FFE9B7"/>
</svg>
