<svg width="40" height="41" viewBox="0 0 40 41" fill="none" xmlns="http://www.w3.org/2000/svg">
<path d="M20 40.7449C31.0457 40.7449 40 31.7906 40 20.7449C40 9.69924 31.0457 0.744934 20 0.744934C8.9543 0.744934 0 9.69924 0 20.7449C0 31.7906 8.9543 40.7449 20 40.7449Z" fill="#2787F5"/>
<path fill-rule="evenodd" clip-rule="evenodd" d="M14.9548 22.3824C14.9929 22.3953 15.0314 22.4044 15.0699 22.4099C15.1118 22.5085 15.166 22.636 15.2292 22.785C15.3835 23.1488 15.5913 23.641 15.8059 24.1542C16.2434 25.2011 16.6847 26.2802 16.7822 26.5891C16.9029 26.9709 17.0304 27.2305 17.1696 27.4078C17.2416 27.4995 17.3249 27.5794 17.4223 27.6401C17.4714 27.6706 17.5232 27.6956 17.5773 27.7142C17.5797 27.7151 17.582 27.7159 17.5844 27.7166C17.8632 27.8219 18.1174 27.7781 18.2765 27.7245C18.3617 27.6957 18.4305 27.6611 18.4794 27.6331C18.5043 27.6187 18.5253 27.6054 18.5421 27.5941L18.546 27.5915L21.0081 26.0561L23.852 28.2364C23.8939 28.2685 23.9398 28.2955 23.9882 28.3167C24.3299 28.4657 24.6607 28.5178 24.9719 28.4752C25.2826 28.4328 25.5293 28.3023 25.7129 28.1554C25.8927 28.0115 26.0147 27.8504 26.0905 27.7307C26.1293 27.6695 26.1584 27.6154 26.179 27.574C26.1893 27.5532 26.1975 27.5353 26.204 27.5209L26.2122 27.5019L26.2153 27.4944L26.2166 27.4913L26.2171 27.4898L26.2177 27.4884C26.2326 27.451 26.2441 27.4123 26.252 27.3729L28.8482 14.2834C28.8565 14.2416 28.8606 14.199 28.8606 14.1563C28.8606 13.773 28.7162 13.4085 28.3766 13.1873C28.0864 12.9983 27.763 12.9901 27.5587 13.0056C27.3382 13.0224 27.1346 13.0768 26.998 13.1203C26.9269 13.1429 26.8673 13.1647 26.8243 13.1814C26.8027 13.1898 26.785 13.197 26.7718 13.2024L26.7619 13.2066L12.2017 18.9183L12.1998 18.919C12.1906 18.9224 12.1786 18.9269 12.1645 18.9324C12.1363 18.9433 12.0985 18.9588 12.0544 18.9788C11.9683 19.0178 11.8476 19.0787 11.7237 19.1636C11.5258 19.2991 11.0706 19.6703 11.1473 20.283C11.2084 20.7718 11.5433 21.072 11.7473 21.2164C11.8593 21.2956 11.9657 21.3523 12.0433 21.3892C12.0792 21.4063 12.1539 21.4366 12.1862 21.4498L12.1944 21.4531L14.9548 22.3824ZM27.2715 14.4098L27.2695 14.4107C27.2622 14.4139 27.2549 14.4169 27.2475 14.4198L12.6697 20.1385C12.662 20.1414 12.6544 20.1443 12.6467 20.147L12.6385 20.1501C12.6292 20.1537 12.6135 20.1601 12.5938 20.169C12.5826 20.174 12.571 20.1796 12.5591 20.1855C12.5754 20.1948 12.591 20.2027 12.6049 20.2093C12.6183 20.2157 12.6285 20.22 12.634 20.2223L15.3717 21.144C15.4218 21.1609 15.4686 21.1832 15.5114 21.2102L24.5512 15.9183L24.5597 15.9133C24.5662 15.9094 24.5749 15.9044 24.5853 15.8986C24.6058 15.8869 24.6341 15.8715 24.6677 15.8544C24.7304 15.8224 24.8309 15.775 24.9439 15.7401C25.0226 15.7157 25.2548 15.6472 25.5057 15.7277C25.6606 15.7774 25.821 15.8842 25.9254 16.0651C25.9771 16.155 26.0047 16.2453 26.0182 16.328C26.0537 16.4582 26.048 16.5868 26.0202 16.6978C25.9603 16.937 25.7924 17.1235 25.6395 17.2662C25.5084 17.3885 23.8137 19.0226 22.1419 20.6358C21.3081 21.4402 20.4829 22.2368 19.8661 22.8322L19.461 23.2233L24.5763 27.1451C24.6937 27.1871 24.763 27.185 24.7951 27.1805C24.8333 27.1753 24.8646 27.1606 24.8965 27.1351C24.9323 27.1065 24.9635 27.0678 24.9869 27.031L24.9878 27.0295L27.5059 14.3342C27.4685 14.3432 27.4307 14.3539 27.3943 14.3654C27.3531 14.3786 27.319 14.3911 27.2966 14.3998C27.2853 14.4042 27.2773 14.4074 27.273 14.4092L27.2715 14.4098ZM19.9004 25.2069L18.8798 24.4244L18.6326 25.9974L19.9004 25.2069ZM17.9437 22.8718L18.9585 21.892C19.5754 21.2966 20.4007 20.5 21.2346 19.6954L22.0818 18.8781L16.4018 22.2031L16.4323 22.275C16.5871 22.6401 16.7958 23.1343 17.0115 23.6504C17.1728 24.0362 17.3414 24.4425 17.495 24.8187L17.7416 23.2502C17.7654 23.099 17.8393 22.9682 17.9437 22.8718Z" fill="white"/>
</svg>
