<svg width="41" height="41" viewBox="0 0 41 41" fill="none" xmlns="http://www.w3.org/2000/svg">
<path d="M20.2017 40.7449C31.2474 40.7449 40.2017 31.7906 40.2017 20.7449C40.2017 9.69924 31.2474 0.744934 20.2017 0.744934C9.15596 0.744934 0.20166 9.69924 0.20166 20.7449C0.20166 31.7906 9.15596 40.7449 20.2017 40.7449Z" fill="#2787F5"/>
<path d="M21.0484 26.7449C14.5692 26.7449 10.8737 22.2404 10.7197 14.7449H13.9652C14.0718 20.2464 16.4644 22.5768 18.3596 23.0572V14.7449H21.4157V19.4897C23.2872 19.2855 25.2532 17.1233 25.9165 14.7449H28.9725C28.4632 17.6759 26.3311 19.838 24.815 20.7269C26.3311 21.4476 28.7595 23.3335 29.6834 26.7449H26.3193C25.5968 24.4627 23.7965 22.6969 21.4157 22.4566V26.7449H21.0484Z" fill="white"/>
</svg>
