<svg width="41" height="41" viewBox="0 0 41 41" fill="none" xmlns="http://www.w3.org/2000/svg">
<path d="M40.3789 20.7398C40.3755 24.5321 39.3014 28.2454 37.2816 31.448C35.2619 34.6505 32.3794 37.2106 28.9696 38.8305C27.6682 37.0589 26.527 35.1739 25.5596 33.1979C25.7403 33.1118 25.914 33.0273 26.0786 32.9464C26.7893 32.5976 27.3505 32.3221 27.7787 32.3221C28.7242 32.3221 29.3122 32.8189 29.5755 33.8411L29.5944 33.9159H29.9249V24.0068H33.0543V23.6519H22.4247C21.7465 20.2604 21.3726 16.5801 21.1573 12.4501L21.0162 7.41968C21.0819 7.41884 21.144 7.41419 21.2107 7.41419C23.0661 7.41419 24.6217 8.12808 25.967 9.59685C27.3087 11.0622 27.989 12.7129 27.989 14.5032V14.6032H28.3418V7.17545H28.0123L27.9926 7.24876C27.8892 7.62778 27.2379 8.03068 26.2332 8.03068C25.7369 8.03068 24.9182 7.87096 23.8698 7.56989C23.0153 7.26191 22.1184 7.08963 21.2112 7.05925C21.1425 7.05925 21.0753 7.06326 21.0065 7.06432L20.8487 0.74599C26.0584 0.845862 31.0215 2.99551 34.6729 6.73355C38.3243 10.4716 40.3728 15.5001 40.3789 20.7398ZM12.4813 11.1353C10.1839 13.8381 9.01888 17.0759 9.01888 20.7593C9.01888 25.7297 10.9543 29.8848 14.4702 32.4599C14.7932 32.6851 15.1279 32.893 15.4728 33.0826C14.4945 35.1007 13.3352 37.0247 12.0093 38.831C7.94677 36.9055 4.65195 33.654 2.66117 29.6057C0.670384 25.5574 0.100867 20.9506 1.04532 16.5354C1.98978 12.1201 4.39259 8.15633 7.86264 5.28919C11.3327 2.42205 15.6656 0.820394 20.1562 0.744934L19.9719 7.12073C17.0502 7.41355 14.5353 8.75957 12.4813 11.1353ZM27.4944 39.4599C22.98 41.1733 17.9994 41.1733 13.4849 39.4599C14.5966 37.56 15.5902 35.5926 16.4601 33.5692C17.7914 34.1371 19.2238 34.4267 20.67 34.4204C22.0012 34.4159 23.319 34.1513 24.5499 33.6414C25.4129 35.6393 26.3962 37.5824 27.4944 39.4599ZM20.6618 7.43003C20.6649 14.0942 20.951 19.2376 21.6837 23.6519H19.2962C20.0279 19.2417 20.3146 14.1044 20.3181 7.44989C20.4306 7.44123 20.5457 7.4351 20.6618 7.43003ZM25.193 32.3994C23.9833 29.713 23.0799 26.8975 22.4999 24.0068H25.7863V30.5521C25.7961 31.2167 25.5875 31.8661 25.193 32.3994ZM19.8227 12.4501C19.4067 20.4263 18.3924 26.7263 15.7406 32.4993C14.8582 31.6527 14.2461 30.421 13.9284 28.8231C13.5918 27.1294 13.4284 24.4918 13.4284 20.7593C13.4284 14.6038 14.4824 10.5761 16.5614 8.78872C17.3898 8.0742 18.5329 7.64003 19.9612 7.48327L19.8227 12.4501ZM19.2376 24.0068C18.7128 27.1513 17.8369 30.2262 16.6266 33.1733C17.6576 33.7884 19.0095 34.1049 20.6705 34.1049C22.2179 34.1049 23.4756 33.7756 24.358 33.1835C23.1453 30.2332 22.2678 27.1546 21.7423 24.0063H19.2377L19.2376 24.0068Z" fill="#FBBD30"/>
</svg>
