<svg width="88" height="73" viewBox="0 0 88 73" fill="none" xmlns="http://www.w3.org/2000/svg">
<g opacity="0.5">
<path fill-rule="evenodd" clip-rule="evenodd" d="M32.3141 0.974305C13.6119 12.9853 3.22204 26.9646 1.14442 42.9129C-2.08996 67.7407 20.113 79.8932 31.363 68.9742C42.613 58.0555 35.8693 44.1961 27.7232 40.4078C19.577 36.6192 14.5954 37.9387 15.4644 32.8763C16.3333 27.8137 27.9228 13.7775 38.1047 7.24069C38.7802 6.66626 39.0372 5.55166 38.3868 4.70628C37.9589 4.14998 37.1197 3.0594 35.8693 1.43412C34.7758 0.012919 33.7282 0.0660903 32.3141 0.974305Z" fill="#FBBD30"/>
<path fill-rule="evenodd" clip-rule="evenodd" d="M81.5509 0.974305C62.8489 12.9853 52.459 26.9646 50.3813 42.9129C47.147 67.7407 69.35 79.8932 80.6 68.9742C91.85 58.0555 85.1063 44.1961 76.9602 40.4078C68.814 36.6192 63.8321 37.9387 64.7014 32.8763C65.5703 27.8137 77.1598 13.7775 87.3417 7.24069C88.0172 6.66626 88.2742 5.55166 87.6235 4.70628C87.1959 4.14998 86.3567 3.0594 85.1063 1.43412C84.0128 0.012919 82.9653 0.0660903 81.5509 0.974305Z" fill="#FBBD30"/>
</g>
</svg>
